<svg xmlns="http://www.w3.org/2000/svg" width="148" height="148" viewBox="0 0 148 148" fill="none">
  <path d="M116.673 86.3334C115.824 92.2216 113.763 97.8699 110.621 102.922C107.48 107.974 103.325 112.32 98.42 115.687C97.1867 110.568 89.6017 106.375 79.6733 105.203C80.7217 97.8651 82.88 91.0201 84.36 87.0734C86.7033 88.5534 89.4167 89.4167 92.5 89.4167C114.392 89.4167 111 52.4167 111 52.4167C111 52.4167 107.917 58.5834 98.6667 58.5834H92.5C89.7569 58.5826 87.0633 59.3138 84.6971 60.7014C82.3308 62.089 80.3777 64.0828 79.0391 66.4771C77.7006 68.8715 77.0251 71.5796 77.0824 74.322C77.1396 77.0645 77.9276 79.7421 79.365 82.0784C83.435 77.8234 87.8133 74.0001 92.5 70.9167C84.36 79.1184 78.1317 89.4167 74 99.2834C70.115 91.6984 65.2433 85.9017 61.6667 83.2501C64.565 84.4834 67.2783 86.3334 69.8683 88.1834C70.5467 86.7034 70.9167 85.0384 70.9167 83.2501C70.6083 66.4151 43.1667 67.8334 43.1667 67.8334C45.0783 70.4234 46.25 73.6917 46.25 77.0834V83.2501C46.25 90.0334 51.8 95.5834 58.5833 95.5834C61.6667 95.5834 64.4417 94.4734 66.6 92.5001C68.0183 96.3851 69.0667 100.825 69.6217 105.08C59.015 106.005 50.875 110.322 49.58 115.748C38.295 107.917 30.8333 94.9051 30.8333 80.1667C30.8333 56.3634 50.1967 37.0001 74 37.0001V55.5001L104.833 30.8334L74 6.16675V24.6667C59.2805 24.6667 45.1638 30.5141 34.7556 40.9223C24.3473 51.3306 18.5 65.4472 18.5 80.1667C18.5 94.8863 24.3473 109.003 34.7556 119.411C45.1638 129.819 59.2805 135.667 74 135.667C102.552 135.667 126.047 114.083 129.13 86.3334H116.673Z" fill="white"/>
</svg>