<svg xmlns="http://www.w3.org/2000/svg" width="26" height="27" viewBox="0 0 26 27" fill="none">
  <path d="M11.5273 1.92685C7.89648 2.12998 4.53984 4.10029 2.48828 7.22841C1.83828 8.22373 1.17812 9.81318 0.919139 11.0269C0.198045 14.3632 0.980076 17.8468 3.06719 20.5839C3.48359 21.1323 4.39258 22.0616 4.95117 22.5136C7.8457 24.8394 11.6035 25.6519 15.1887 24.7276C19.2867 23.6714 22.5215 20.3757 23.532 16.237C23.7555 15.3077 23.8367 14.6171 23.8418 13.5761C23.8418 12.6823 23.7453 11.4686 23.6691 11.4686C23.6539 11.4686 23.207 11.8952 22.684 12.4233L21.7344 13.3729V13.7792C21.7293 15.587 20.9879 17.6843 19.8047 19.2382C17.5957 22.1378 13.909 23.5241 10.3543 22.7878C6.44414 21.9804 3.44297 18.8015 2.86914 14.8558C2.76758 14.1397 2.76758 12.8601 2.86914 12.144C3.32617 9.02099 5.29648 6.33974 8.14531 4.96357C9.26758 4.42529 10.268 4.15615 11.5629 4.04443C13.5332 3.87685 15.6914 4.42021 17.3469 5.50185C17.5805 5.6542 17.7937 5.78115 17.8141 5.78115C17.8902 5.78115 19.307 4.31865 19.2766 4.26787C19.2613 4.2374 18.9871 4.04443 18.6672 3.83115C16.575 2.43466 14.107 1.77959 11.5273 1.92685Z" fill="white"/>
  <path d="M22.9328 4.08C22.7703 4.13586 21.7598 5.12102 18.0426 8.83821L13.3555 13.5253L11.4918 11.6667C10.4609 10.6409 9.56718 9.77766 9.50117 9.74211C9.34374 9.66086 8.93749 9.66086 8.78007 9.74211C8.61249 9.82844 7.22109 11.2097 7.12968 11.3773C7.03828 11.555 7.03828 11.9917 7.12968 12.1695C7.17031 12.2456 8.3789 13.4745 9.81093 14.9015C12.7461 17.8214 12.6344 17.7351 13.3555 17.7351C13.6246 17.73 13.8227 17.6995 14.041 17.6132C14.3355 17.5066 14.559 17.2882 19.7437 12.1085C22.8059 9.05149 25.1875 6.63938 25.2434 6.53274C25.3652 6.29407 25.3652 5.97922 25.2434 5.74055C25.1875 5.63899 24.8168 5.22766 24.4156 4.83665C23.8469 4.2679 23.6437 4.1054 23.4863 4.05969C23.2324 3.9886 23.1766 3.99368 22.9328 4.08Z" fill="white"/>
</svg> 