<svg xmlns="http://www.w3.org/2000/svg" width="40" height="40" viewBox="0 0 40 40" fill="none">
  <g clip-path="url(#clip0_102_3580)">
    <path d="M40 20.1216C40 30.1033 32.6767 38.3783 23.1167 39.8799V25.9416H27.765L28.65 20.1749H23.1167V16.4332C23.1167 14.8549 23.89 13.3182 26.3667 13.3182H28.8817V8.40825C28.8817 8.40825 26.5983 8.01825 24.4167 8.01825C19.86 8.01825 16.8833 10.7799 16.8833 15.7782V20.1733H11.8183V25.9399H16.8833V39.8783C7.325 38.3749 0 30.1016 0 20.1216C0 9.07658 8.955 0.121582 20 0.121582C31.045 0.121582 40 9.07492 40 20.1216Z" fill="white"/>
  </g>
  <defs>
    <clipPath id="clip0_102_3580">
      <rect width="40" height="40" fill="white"/>
    </clipPath>
  </defs>
</svg>