<svg xmlns="http://www.w3.org/2000/svg" width="7" height="11" viewBox="0 0 7 11" fill="none">
  <path d="M0.69578 10.3164C0.633721 10.2584 0.584483 10.1894 0.550888 10.1135C0.517292 10.0376 0.5 9.9562 0.5 9.874C0.5 9.79181 0.517292 9.71042 0.550888 9.63451C0.584483 9.55859 0.633721 9.48963 0.69578 9.43159L4.89012 5.49984L0.69578 1.56809C0.570647 1.45075 0.500349 1.29161 0.500348 1.12567C0.500348 0.959731 0.570647 0.80059 0.69578 0.683254C0.820912 0.565918 0.990629 0.5 1.16759 0.5C1.34456 0.5 1.51427 0.565918 1.63941 0.683254L6.30422 5.05742C6.36628 5.11547 6.41552 5.18442 6.44911 5.26034C6.48271 5.33626 6.5 5.41764 6.5 5.49984C6.5 5.58203 6.48271 5.66341 6.44911 5.73933C6.41552 5.81525 6.36628 5.88421 6.30422 5.94225L1.63941 10.3164C1.5775 10.3746 1.50396 10.4208 1.423 10.4523C1.34204 10.4838 1.25525 10.5 1.16759 10.5C1.07994 10.5 0.993144 10.4838 0.912183 10.4523C0.831221 10.4208 0.757683 10.3746 0.69578 10.3164Z" fill="white"/>
</svg>