<svg xmlns="http://www.w3.org/2000/svg" width="40" height="40" viewBox="0 0 40 40" fill="none">
  <g clip-path="url(#clip0_102_3584)">
    <path d="M18.0859 0.0859146C11.8359 0.734352 6.35937 4.13279 3.03125 9.42966C-1.6875 16.9297 -0.804691 26.8437 5.15625 33.375C8.46094 36.9922 12.5859 39.1562 17.5391 39.8594C18.4609 39.9922 21.5312 39.9844 22.5 39.8594C27.0234 39.2344 31.0703 37.2265 34.1484 34.0859C35.1641 33.0547 35.375 32.8125 36.0469 31.9219C38.0469 29.2578 39.3516 26.0078 39.8594 22.4609C39.9922 21.539 39.9922 18.4609 39.8594 17.539C39.5234 15.1719 38.9062 13.1562 37.9297 11.1797C36.8828 9.08591 35.8203 7.59373 34.1562 5.91404C31.0703 2.78904 27.2109 0.843727 22.7734 0.187477C21.8125 0.0468521 19.0391 -0.0156479 18.0859 0.0859146ZM24.7109 8.59373C26.9609 8.74216 28.2734 9.23435 29.4766 10.375C30.6953 11.539 31.2578 12.9687 31.4062 15.289C31.5078 16.8125 31.5078 23.1484 31.4062 24.6953C31.2578 27.039 30.6797 28.4844 29.4297 29.664C28.2656 30.7656 26.9219 31.2656 24.7109 31.4062C23.2109 31.5 16.7891 31.5 15.2891 31.4062C13.0391 31.2578 11.7266 30.7656 10.5234 29.625C9.30468 28.4609 8.74218 27.0312 8.59375 24.7109C8.49218 23.1953 8.5 16.6797 8.59375 15.2422C8.75 12.9531 9.3125 11.5312 10.5234 10.375C11.6797 9.28123 13.0625 8.73435 15.0703 8.60154C16.3906 8.50779 23.3594 8.50779 24.7109 8.59373Z" fill="white"/>
    <path d="M17.1484 10.6328C14.8047 10.6797 14.4219 10.7031 13.8984 10.8438C12.2344 11.2969 11.2891 12.2344 10.8438 13.8984C10.7031 14.4219 10.6797 14.8125 10.6328 17.25C10.6094 18.7578 10.6094 21.2422 10.6328 22.7578C10.6797 25.1875 10.7031 25.5781 10.8438 26.1016C11.2891 27.7656 12.2344 28.7109 13.8984 29.1562C14.4219 29.2969 14.8125 29.3203 17.25 29.3672C18.7578 29.3906 21.2422 29.3906 22.7578 29.3672C25.2031 29.3203 25.5781 29.2969 26.1172 29.1484C27.7344 28.7188 28.7188 27.7422 29.1562 26.1172C29.2969 25.5703 29.3203 25.2109 29.3672 22.75C29.3906 21.2422 29.3906 18.7578 29.3672 17.2422C29.3203 14.8047 29.2969 14.4219 29.1562 13.8984C28.7109 12.2344 27.7578 11.2812 26.1016 10.8438C25.4922 10.6875 25.3359 10.6797 20.9375 10.6016C20.3125 10.5938 18.6094 10.6094 17.1484 10.6328ZM26.6172 12.5859C26.9141 12.6953 27.2656 13.0312 27.3906 13.3359C27.7734 14.2188 27.0938 15.2344 26.1328 15.2344C25.3984 15.2344 24.7656 14.6094 24.7656 13.875C24.7656 12.9297 25.7344 12.25 26.6172 12.5859ZM21.8984 14.4297C22.8438 14.7578 23.3672 15.0938 24.1094 15.8203C24.8281 16.5312 25.2734 17.2344 25.6016 18.1641C25.8047 18.7422 25.8203 18.875 25.8203 20C25.8203 21.125 25.8047 21.2578 25.6016 21.8359C25.2891 22.7344 24.8203 23.4688 24.1484 24.1484C23.4688 24.8203 22.7344 25.2891 21.8359 25.6016C21.2578 25.8047 21.125 25.8203 20 25.8203C18.875 25.8203 18.7422 25.8047 18.1641 25.6016C17.2344 25.2734 16.5312 24.8281 15.8203 24.1094C15.0938 23.3672 14.7656 22.8438 14.4219 21.8984C14.1875 21.2344 14.1797 21.1641 14.1797 20C14.1875 18.8984 14.2031 18.7344 14.3984 18.1641C14.8047 16.9531 15.6719 15.8125 16.7188 15.1172C17.8594 14.3594 18.6797 14.1328 20.1562 14.1641C21.0938 14.1875 21.2812 14.2188 21.8984 14.4297Z" fill="white"/>
    <path d="M19.0781 16.2969C17.0234 16.8438 15.7734 18.9063 16.2891 20.8907C16.6641 22.3204 17.6797 23.336 19.1172 23.711C21.8047 24.4141 24.4141 21.8048 23.7109 19.1173C23.1641 17.0313 21.0781 15.7579 19.0781 16.2969Z" fill="white"/>
  </g>
  <defs>
    <clipPath id="clip0_102_3584">
      <rect width="40" height="40" fill="white"/>
    </clipPath>
  </defs>
</svg>