<svg xmlns="http://www.w3.org/2000/svg" width="40" height="40" viewBox="0 0 40 40" fill="none">
  <g clip-path="url(#clip0_102_3594)">
    <path d="M18.0859 0.0859146C11.8359 0.734352 6.35938 4.13279 3.03125 9.42966C-1.6875 16.9297 -0.804687 26.8437 5.15625 33.375C8.46094 36.9922 12.5859 39.1562 17.5391 39.8594C18.4609 39.9922 21.5312 39.9844 22.5 39.8594C27.0234 39.2344 31.0703 37.2265 34.1484 34.0859C35.1641 33.0547 35.375 32.8125 36.0469 31.9219C38.0469 29.2578 39.3516 26.0078 39.8594 22.4609C39.9922 21.539 39.9922 18.4609 39.8594 17.539C39.5234 15.1719 38.9062 13.1562 37.9297 11.1797C36.8828 9.08591 35.8203 7.59373 34.1562 5.91404C31.0703 2.78904 27.2109 0.843727 22.7734 0.187477C21.8125 0.0468521 19.0391 -0.0156479 18.0859 0.0859146ZM12.9297 8.71873C13.4844 8.91404 14.1484 9.58591 14.3359 10.1562C14.7891 11.4844 14.1797 12.8828 12.9375 13.3515C11.4766 13.8984 9.99219 13.4453 9.32812 12.25C9.11719 11.8672 9.10156 11.7734 9.10156 11.0547C9.10156 10.3984 9.13281 10.2187 9.27344 9.9531C9.64062 9.2656 10.1797 8.8281 10.9297 8.61716C11.3906 8.48435 12.4141 8.53904 12.9297 8.71873ZM27.7734 15.4297C28.5625 15.6484 29.4375 16.1484 30 16.7187C30.6016 17.3281 30.9609 17.914 31.2656 18.7656C31.6953 19.9922 31.7188 20.289 31.7188 25.4765V30.2344H29.2969H26.875V25.9531C26.875 22.5781 26.8516 21.5703 26.7656 21.164C26.5625 20.2109 26.1797 19.664 25.4844 19.3203C24.8672 19.0156 23.9922 19.0078 23.3594 19.3047C22.7969 19.5703 22.3281 20.0547 22.0156 20.6875L21.7578 21.2109L21.7344 25.7187L21.7109 30.2344H19.2891H16.875V22.8906V15.5469H19.2969H21.7188V16.5781L21.7266 17.6172L21.9219 17.3828C22.0312 17.25 22.2578 16.9844 22.4219 16.7812C22.9922 16.1094 24.1172 15.4922 25.1172 15.3125C25.6719 15.2109 27.2188 15.2812 27.7734 15.4297ZM14.2031 22.9062L14.2188 30.2344H11.7578H9.29688V22.9453C9.29688 18.9297 9.32031 15.625 9.35156 15.6015C9.38281 15.5703 10.4766 15.5547 11.7891 15.5625L14.1797 15.5859L14.2031 22.9062Z" fill="white"/>
  </g>
  <defs>
    <clipPath id="clip0_102_3594">
      <rect width="40" height="40" fill="white"/>
    </clipPath>
  </defs>
</svg>