<svg xmlns="http://www.w3.org/2000/svg" width="223" height="70" viewBox="0 0 223 70" fill="none">
<rect width="223" height="70" fill="#E5E5E5"/>
<g id="home_page" clip-path="url(#clip0_19_800)">
<rect width="1440" height="6399" transform="translate(-135 -20)" fill="white"/>
<g id="Frame 8">
<g id="Bhagy-logo 1" clip-path="url(#clip1_19_800)">
<path id="Vector" d="M64.3772 28.5328C66.7445 28.5328 68.6637 26.6343 68.6637 24.2923C68.6637 21.9503 66.7445 20.0518 64.3772 20.0518C62.0098 20.0518 60.0906 21.9503 60.0906 24.2923C60.0906 26.6343 62.0098 28.5328 64.3772 28.5328Z" fill="#0090B5"/>
<path id="Vector_2" d="M64.1965 33.9709C64.4375 33.8989 64.673 33.8099 64.9011 33.7048C64.9946 33.6667 65.0907 33.6313 65.1881 33.5996C66.0228 33.3309 66.9193 33.3132 67.7642 33.5487C68.6091 33.7842 69.3645 34.2622 69.9347 34.9224C70.5049 35.5826 70.8645 36.3952 70.9678 37.2575C71.0711 38.1199 70.9136 38.9931 70.5151 39.7669C70.1167 40.5407 69.4953 41.1802 68.7294 41.6045C67.9636 42.0288 67.0877 42.2189 66.2126 42.1508C65.3376 42.0826 64.5026 41.7593 63.8133 41.2216C63.124 40.6839 62.6114 39.9561 62.3402 39.1302C62.0094 38.1188 61.4588 37.1912 60.7271 36.4125C59.9954 35.6339 59.1004 35.023 58.1048 34.6228C57.1092 34.2226 56.0371 34.0428 54.9638 34.0959C53.8905 34.149 52.842 34.4338 51.8917 34.9303C51.0261 35.4116 50.0509 35.6671 49.058 35.6729C48.065 35.6786 47.0869 35.4344 46.2157 34.9631C45.3445 34.4919 44.6087 33.8091 44.0777 32.9791C43.5467 32.149 43.2379 31.199 43.1803 30.2183C43.0928 28.932 43.4417 27.6536 44.1717 26.5856C44.9018 25.5177 45.9712 24.7213 47.2106 24.3227C47.458 24.2434 47.7105 24.1807 47.9664 24.1351C48.1151 24.0971 48.2637 24.0565 48.411 24.0084C49.3324 23.7128 50.1859 23.2405 50.9227 22.6186C51.6596 21.9967 52.2654 21.2372 52.7056 20.3836C53.1457 19.5301 53.4116 18.5991 53.488 17.6439C53.5645 16.6886 53.4499 15.7278 53.151 14.8164C53.0716 14.5765 52.9819 14.3437 52.882 14.1181C52.8435 14.0243 52.8077 13.9305 52.7756 13.8329C52.5965 13.2845 52.5283 12.7065 52.5749 12.1319C52.6215 11.5574 52.7821 10.9975 53.0474 10.4844C53.3128 9.97124 53.6777 9.51481 54.1213 9.14116C54.565 8.76752 55.0787 8.48398 55.6331 8.30673C56.1875 8.12949 56.7718 8.062 57.3526 8.10814C57.9334 8.15427 58.4993 8.31312 59.018 8.57561C59.5367 8.8381 59.9981 9.1991 60.3758 9.63799C60.7535 10.0769 61.0401 10.5851 61.2193 11.1335C61.9662 13.4337 60.5595 15.5806 58.3663 16.6515C55.9476 17.8314 54.7088 19.7096 54.1067 21.5941C52.905 25.353 54.2348 29.4237 57.2454 32.0002C59.0286 33.5311 61.4255 34.7313 64.1965 33.9709Z" fill="#0090B5"/>
<path id="Vector_3" d="M54.4513 63.2007C56.8187 63.2007 58.7378 61.3022 58.7378 58.9602C58.7378 56.6183 56.8187 54.7197 54.4513 54.7197C52.0839 54.7197 50.1648 56.6183 50.1648 58.9602C50.1648 61.3022 52.0839 63.2007 54.4513 63.2007Z" fill="#0076A2"/>
<path id="Vector_4" d="M58.0857 49.5097C56.7971 48.7914 55.3369 48.4294 53.8581 48.4616C49.8753 48.4933 46.3702 50.9963 44.8252 54.6297C43.9092 56.7842 43.4967 59.4101 45.0814 61.7813C45.2249 61.9864 45.3833 62.1808 45.5554 62.363C45.6208 62.4403 45.6835 62.5189 45.745 62.6013C46.2608 63.3035 46.5545 64.1413 46.589 65.0086C46.6235 65.876 46.3972 66.734 45.9388 67.4741C45.4803 68.2143 44.8103 68.8033 44.0135 69.1667C43.2167 69.5302 42.3288 69.6517 41.4621 69.5159C40.5955 69.3801 39.789 68.9932 39.1446 68.404C38.5003 67.8147 38.0471 67.0497 37.8422 66.2057C37.6374 65.3617 37.6901 64.4765 37.9938 63.6621C38.2975 62.8477 38.8385 62.1407 39.5484 61.6305C40.4177 61.006 41.1385 60.2011 41.6604 59.2721C42.1823 58.3432 42.4927 57.3126 42.5698 56.2526C42.6469 55.1925 42.489 54.1286 42.1069 53.1353C41.7249 52.142 41.128 51.2433 40.3581 50.502C39.7598 49.9499 39.2847 49.2802 38.9632 48.5359C38.6417 47.7916 38.4808 46.9891 38.4909 46.1797C38.501 45.3704 38.6819 44.5721 39.0219 43.8358C39.3618 43.0996 39.8535 42.4418 40.4653 41.9044C41.0772 41.367 41.7957 40.9619 42.5749 40.7151C43.3542 40.4683 44.1769 40.3852 44.9905 40.4711C45.8041 40.557 46.5905 40.81 47.2995 41.214C48.0085 41.6179 48.6245 42.1639 49.1079 42.8169C49.2602 43.0259 49.3988 43.2444 49.523 43.4709C49.6049 43.5976 49.6895 43.7243 49.7792 43.8511C50.3485 44.6264 51.0667 45.2832 51.8927 45.784C52.7187 46.2847 53.6364 46.6195 54.5932 46.7693C55.5501 46.9192 56.5274 46.881 57.4693 46.6571C58.4113 46.4332 59.2994 46.0279 60.0829 45.4644C60.2872 45.3185 60.4835 45.162 60.671 44.9955C60.7478 44.9308 60.8285 44.8687 60.9118 44.8079C61.3837 44.4699 61.9183 44.2271 62.485 44.0935C63.0518 43.9598 63.6395 43.9379 64.2148 44.029C64.7901 44.1201 65.3417 44.3224 65.8379 44.6244C66.3342 44.9263 66.7655 45.322 67.1071 45.7888C67.4488 46.2556 67.6942 46.7845 67.8293 47.3451C67.9644 47.9058 67.9865 48.4873 67.8945 49.0564C67.8024 49.6255 67.5979 50.1711 67.2927 50.662C66.9875 51.153 66.5875 51.5796 66.1156 51.9177C64.135 53.332 61.6318 52.6717 59.9305 50.9393C59.3841 50.3787 58.761 49.8966 58.0793 49.5072" fill="#0076A2"/>
<path id="Vector_5" d="M18.0544 64.5758C20.4217 64.5758 22.3409 62.6773 22.3409 60.3353C22.3409 57.9933 20.4217 56.0948 18.0544 56.0948C15.687 56.0948 13.7678 57.9933 13.7678 60.3353C13.7678 62.6773 15.687 64.5758 18.0544 64.5758Z" fill="#005A8E"/>
<path id="Vector_6" d="M12.4509 52.3992C12.2997 52.598 12.1631 52.8072 12.0422 53.0253C11.9884 53.1102 11.932 53.1939 11.8718 53.2788C11.3558 53.9806 10.6411 54.5153 9.81803 54.8153C8.99493 55.1154 8.10038 55.1673 7.24746 54.9646C6.39453 54.7618 5.62151 54.3134 5.02611 53.6761C4.4307 53.0389 4.03964 52.2413 3.90234 51.3842C3.76504 50.5271 3.88767 49.649 4.25473 48.8608C4.6218 48.0726 5.21681 47.4098 5.96458 46.9561C6.71234 46.5024 7.57929 46.2782 8.45584 46.3118C9.33239 46.3454 10.1792 46.6353 10.8892 47.1449C11.6726 47.7081 12.5604 48.1132 13.502 48.337C14.4436 48.5608 15.4205 48.5988 16.377 48.449C17.3335 48.2992 18.2508 47.9644 19.0765 47.4638C19.9021 46.9633 20.62 46.3067 21.1892 45.5316C21.4351 45.1954 21.652 44.8393 21.8374 44.467C22.1942 43.6988 22.716 43.0169 23.3665 42.4685C24.0169 41.9202 24.7803 41.5187 25.6036 41.292C26.4269 41.0653 27.2902 41.0189 28.1334 41.1559C28.9767 41.2929 29.7796 41.6101 30.4864 42.0854C31.1931 42.5607 31.7866 43.1827 32.2255 43.908C32.6645 44.6334 32.9384 45.4446 33.0281 46.2853C33.1178 47.1261 33.0212 47.976 32.745 48.776C32.4688 49.5761 32.0197 50.3069 31.4289 50.9177C31.3315 51.0343 31.2354 51.1535 31.1445 51.2777C29.9956 52.8425 29.5216 54.7945 29.8267 56.7048C30.1317 58.6151 31.1909 60.3275 32.7715 61.4658C32.9764 61.6128 33.1878 61.7496 33.403 61.8738C33.4889 61.9271 33.5747 61.9828 33.6593 62.0424C34.6106 62.7281 35.2476 63.7595 35.4302 64.9099C35.6128 66.0602 35.326 67.2352 34.6329 68.1763C34.2897 68.6423 33.8571 69.0369 33.3597 69.3375C32.8624 69.6381 32.3101 69.8388 31.7343 69.9283C30.5715 70.1089 29.3838 69.8252 28.4324 69.1395C26.4608 67.7125 26.3238 65.1575 27.4614 63.017C28.7181 60.6559 28.6028 58.4153 27.9738 56.5384C26.7119 52.7997 23.2222 50.2765 19.2522 49.9482C16.8924 49.7505 14.2393 50.1738 12.4509 52.3992Z" fill="#005A8E"/>
<path id="Vector_7" d="M5.48561 30.7569C7.85299 30.7569 9.77213 28.8584 9.77213 26.5164C9.77213 24.1745 7.85299 22.2759 5.48561 22.2759C3.11823 22.2759 1.1991 24.1745 1.1991 26.5164C1.1991 28.8584 3.11823 30.7569 5.48561 30.7569Z" fill="#003F7C"/>
<path id="Vector_8" d="M11.3837 18.7908C11.1457 18.709 10.9021 18.6442 10.6548 18.5969C10.5561 18.5715 10.4575 18.5449 10.3589 18.5145C9.52442 18.2462 8.78913 17.7392 8.24595 17.0576C7.70278 16.3759 7.37611 15.5503 7.30725 14.685C7.2384 13.8197 7.43045 12.9536 7.85913 12.1963C8.2878 11.439 8.93385 10.8244 9.71558 10.4303C10.4973 10.0362 11.3796 9.88023 12.2509 9.98215C13.1223 10.0841 13.9435 10.4393 14.6107 11.0029C15.278 11.5665 15.7613 12.3132 15.9996 13.1486C16.2379 13.9839 16.2205 14.8704 15.9495 15.6959C15.6504 16.6075 15.5357 17.5683 15.612 18.5237C15.6884 19.4791 15.9542 20.4102 16.3944 21.264C16.8346 22.1177 17.4404 22.8772 18.1774 23.4993C18.9144 24.1213 19.768 24.5936 20.6895 24.8892C21.0883 25.0162 21.4971 25.1099 21.9117 25.1693C22.8986 25.2824 23.8401 25.6422 24.6476 26.2147C25.4551 26.7873 26.1019 27.5539 26.5271 28.4421C26.9523 29.3303 27.142 30.3111 27.0782 31.2919C27.0144 32.2727 26.6992 33.2212 26.1623 34.0482C25.469 35.14 24.427 35.9717 23.2017 36.4113C21.9764 36.8509 20.6379 36.8734 19.3982 36.4752C19.1514 36.3947 18.91 36.2986 18.6757 36.1875C18.5322 36.1317 18.3887 36.0785 18.2414 36.0303C17.32 35.7346 16.3487 35.6213 15.383 35.6968C14.4173 35.7724 13.4761 36.0355 12.6132 36.4709C11.7502 36.9063 10.9824 37.5056 10.3536 38.2346C9.72484 38.9636 9.24733 39.8079 8.94838 40.7195C8.87066 40.9586 8.80533 41.1989 8.75238 41.4406C8.72676 41.5382 8.69985 41.6357 8.66783 41.7333C8.46985 42.3353 8.14263 42.8879 7.70861 43.3531C7.27459 43.8183 6.74402 44.1852 6.15327 44.4286C5.56252 44.672 4.92555 44.7861 4.28603 44.7632C3.64652 44.7403 3.01957 44.5809 2.44815 44.2959C1.49155 43.8294 0.738867 43.035 0.330218 42.0605C-0.0784306 41.086 -0.115202 39.9978 0.226748 38.9984C0.988995 36.7033 3.40256 35.7845 5.81357 36.1938C8.47182 36.645 10.5895 35.8453 12.1985 34.673C15.4012 32.331 16.7502 28.2679 15.8419 24.4304C15.3039 22.1517 14.0766 19.7869 11.3837 18.7908Z" fill="#003F7C"/>
<path id="Vector_9" d="M34.1141 8.48101C36.4814 8.48101 38.4006 6.58247 38.4006 4.2405C38.4006 1.89854 36.4814 0 34.1141 0C31.7467 0 29.8275 1.89854 29.8275 4.2405C29.8275 6.58247 31.7467 8.48101 34.1141 8.48101Z" fill="#00ABC8"/>
<path id="Vector_10" d="M43.3635 7.40123C43.3692 7.15227 43.3568 6.90323 43.3264 6.65603C43.3187 6.55591 43.3148 6.45453 43.3148 6.35314C43.3148 5.48512 43.575 4.63659 44.0625 3.91486C44.55 3.19313 45.2428 2.63061 46.0535 2.29843C46.8641 1.96626 47.7561 1.87934 48.6167 2.04869C49.4773 2.21803 50.2678 2.63602 50.8882 3.2498C51.5087 3.86358 51.9312 4.64559 52.1024 5.49693C52.2736 6.34827 52.1857 7.23071 51.8499 8.03265C51.5141 8.8346 50.9455 9.52003 50.216 10.0023C49.4864 10.4845 48.6287 10.7419 47.7512 10.7419C45.7954 10.7419 43.9197 11.5104 42.5366 12.8784C41.1535 14.2464 40.3764 16.1019 40.376 18.0367C40.3767 18.4517 40.4127 18.8659 40.4836 19.2749C40.6395 20.0695 40.6258 20.8876 40.4436 21.6767C40.2614 22.4658 39.9146 23.2085 39.4255 23.8574C38.9364 24.5063 38.3156 25.0469 37.6031 25.4448C36.8905 25.8426 36.1018 26.0888 35.2875 26.1677C34.4731 26.2466 33.6511 26.1564 32.8741 25.9028C32.0971 25.6493 31.3821 25.238 30.775 24.6953C30.168 24.1526 29.6821 23.4905 29.3487 22.7513C29.0152 22.0122 28.8415 21.2122 28.8385 20.4028C28.8389 20.1455 28.8569 19.8885 28.8923 19.6335C28.9013 19.4827 28.9077 19.3307 28.9077 19.176C28.9074 18.1552 28.6905 17.1458 28.2712 16.2131C27.8518 15.2803 27.2393 14.445 26.4732 13.7611C25.7072 13.0772 24.8045 12.5599 23.8237 12.2426C22.8429 11.9254 21.8058 11.8152 20.7792 11.9193C20.678 11.9193 20.5768 11.9307 20.473 11.9307C19.8905 11.9298 19.3137 11.8153 18.7758 11.5939C18.238 11.3725 17.7494 11.0485 17.3381 10.6403C16.9268 10.2321 16.6008 9.7478 16.3787 9.21497C16.1566 8.68215 16.0428 8.11127 16.0437 7.53493C16.0446 6.95859 16.1603 6.38807 16.3841 5.85595C16.6079 5.32382 16.9355 4.84052 17.3481 4.43363C17.7607 4.02674 18.2503 3.70424 18.7889 3.48453C19.3275 3.26482 19.9045 3.1522 20.4871 3.15312C22.9302 3.15945 24.5584 5.14664 24.9095 7.5419C25.2938 10.1818 26.7209 11.9269 28.3479 13.0776C31.5903 15.369 35.9127 15.3804 39.3217 13.34C41.3445 12.1284 43.2392 10.2426 43.3635 7.40123Z" fill="#00ABC8"/>
<g id="Group 117">
<path id="Path 195" d="M107.847 22.4445C107.88 23.4227 107.645 24.3915 107.165 25.2478C106.699 26.015 106.036 26.6467 105.244 27.0791C104.321 27.5764 103.32 27.9154 102.283 28.0816C101.031 28.2942 99.7619 28.3968 98.4912 28.3883H83.3987V6.23528H98.7718C99.918 6.22242 101.062 6.33806 102.182 6.57999C103.082 6.76871 103.943 7.10772 104.728 7.58246C105.399 7.98126 105.95 8.54939 106.326 9.22862C106.702 9.90785 106.889 10.6737 106.867 11.4478V12.136C106.867 13.4337 106.469 14.4476 105.674 15.1776C104.879 15.9076 103.673 16.3786 102.055 16.5907C102.851 16.6677 103.633 16.8497 104.38 17.1318C105.049 17.3804 105.67 17.7395 106.216 18.1939C106.737 18.6259 107.153 19.1677 107.435 19.7794C107.717 20.3912 107.857 21.0576 107.844 21.7297L107.847 22.4445ZM100.268 12.2665C100.268 12.0231 100.22 11.7821 100.127 11.5568C100.025 11.3152 99.8648 11.1017 99.6609 10.9346C99.4059 10.7291 99.1112 10.5773 98.7948 10.4885C98.3597 10.3657 97.9084 10.3084 97.4561 10.3186H89.9208V14.8151H97.1896C98.264 14.8151 99.0459 14.6195 99.5353 14.2284C99.7708 14.0469 99.9598 13.8133 100.087 13.5462C100.214 13.2792 100.276 12.9862 100.268 12.6911V12.2665ZM101.244 21.1544C101.236 20.7912 101.129 20.4369 100.934 20.1291C100.735 19.8363 100.466 19.5971 100.15 19.4333C99.7697 19.2384 99.3601 19.1049 98.937 19.0379C98.4186 18.9508 97.8935 18.9084 97.3677 18.9112H89.9208V23.9336H97.4548C97.937 23.9349 98.4189 23.9057 98.8973 23.8462C99.3196 23.7979 99.7316 23.6841 100.118 23.5091C100.461 23.354 100.751 23.105 100.955 22.7917C101.172 22.4188 101.272 21.9905 101.243 21.5612L101.244 21.1544Z" fill="#003F7C"/>
<path id="Path 196" d="M111.813 28.3883V6.23401H118.347V14.9609H130.588V6.23401H137.13V28.3883H130.588V19.6437H118.342V28.3883H111.813Z" fill="#003F7C"/>
<path id="Path 197" d="M139.863 28.3883L150.136 6.23401H158.529L168.801 28.3883H162.081L160.159 23.8196H148.509L146.587 28.3883H139.863ZM150.328 19.4701H158.342L154.686 10.7571H154.006L150.328 19.4701Z" fill="#003F7C"/>
<path id="Path 198" d="M182.641 16.3081H195.503L195.444 18.754C195.444 18.8605 195.444 18.9543 195.436 19.0316C195.428 19.1089 195.423 19.2027 195.414 19.3104C195.308 20.551 194.96 21.7595 194.39 22.8691C193.786 24.0457 192.947 25.0891 191.925 25.936C190.773 26.8803 189.456 27.6075 188.039 28.0816C186.337 28.6457 184.55 28.9179 182.755 28.8864C180.717 28.9188 178.686 28.6627 176.722 28.126C175.16 27.7041 173.699 26.98 172.421 25.9956C171.307 25.1135 170.427 23.9748 169.859 22.679C169.277 21.3163 168.987 19.8492 169.006 18.37V16.2485C168.985 14.7548 169.28 13.2732 169.872 11.899C170.45 10.6014 171.339 9.46291 172.462 8.58239C173.741 7.60589 175.203 6.88959 176.763 6.47481C178.721 5.95042 180.744 5.70126 182.773 5.73469C184.414 5.71538 186.05 5.90752 187.641 6.30625C188.984 6.6409 190.259 7.20302 191.408 7.96773C192.453 8.67657 193.342 9.58754 194.021 10.6456C194.721 11.7558 195.208 12.9847 195.457 14.2702H189.136C189.006 13.6426 188.753 13.0465 188.389 12.5163C188.026 11.986 187.561 11.532 187.019 11.1804C185.925 10.4665 184.499 10.11 182.742 10.1108C181.786 10.1036 180.835 10.2295 179.915 10.4847C179.081 10.7099 178.299 11.0897 177.609 11.6037C176.951 12.1028 176.422 12.7474 176.062 13.4857C175.67 14.3181 175.477 15.2289 175.5 16.1471V18.5031C175.479 19.4081 175.672 20.3054 176.062 21.1239C176.423 21.8587 176.949 22.5023 177.6 23.0059C178.284 23.5244 179.063 23.907 179.894 24.1326C180.814 24.3892 181.766 24.5172 182.721 24.5128C183.71 24.5295 184.696 24.4136 185.653 24.1681C186.392 23.9793 187.093 23.665 187.724 23.2391C188.246 22.879 188.683 22.4117 189.005 21.8691C189.309 21.3543 189.505 20.7847 189.583 20.1937H182.627L182.641 16.3081Z" fill="#003F7C"/>
<path id="Path 199" d="M212.08 20.6424V28.3883H205.546V20.6424L194.776 6.23276H202.193L208.824 15.8987L215.425 6.23276H222.841L212.08 20.6424Z" fill="#003F7C"/>
</g>
<g id="Group 119">
<g id="Group 118">
<path id="Path 200" d="M88.8818 35.791C88.8421 36.0554 88.7554 36.3107 88.6256 36.545C88.4913 36.7871 88.3081 36.9994 88.0875 37.1686C87.8335 37.3579 87.5471 37.5005 87.242 37.5893C86.862 37.6999 86.4671 37.7524 86.0711 37.7452C85.6215 37.7542 85.1731 37.6957 84.7413 37.5716C84.3995 37.4738 84.0813 37.3082 83.8061 37.0849C83.5653 36.8843 83.3764 36.6297 83.2553 36.3423C83.1322 36.0434 83.0708 35.7233 83.0746 35.4006V34.9621C83.0708 34.6399 83.1322 34.3202 83.2553 34.0218C83.3761 33.7338 83.565 33.4787 83.8061 33.2779C84.0814 33.0541 84.4001 32.8885 84.7426 32.7912C85.1754 32.6673 85.6245 32.6084 86.0749 32.6163C86.4588 32.6115 86.8413 32.6606 87.2112 32.7621C87.5146 32.8456 87.7999 32.9835 88.0529 33.1689C88.2786 33.3363 88.4663 33.5487 88.6038 33.7924C88.7419 34.0384 88.8335 34.3072 88.8741 34.5857H87.7032C87.6686 34.4193 87.604 34.2605 87.5123 34.1168C87.4225 33.9774 87.3059 33.8568 87.169 33.762C87.0209 33.6604 86.8562 33.5849 86.6822 33.5389C86.4811 33.4843 86.2732 33.4579 86.0647 33.4604C85.8181 33.4571 85.5724 33.4904 85.3357 33.5592C85.1301 33.6184 84.9379 33.7161 84.7695 33.8469C84.6118 33.972 84.4862 34.1322 84.4031 34.3145C84.3145 34.5141 84.2708 34.7303 84.275 34.9482V35.4336C84.2689 35.6517 84.3127 35.8683 84.4031 36.0673C84.4887 36.247 84.6149 36.4048 84.7721 36.5286C84.9391 36.6595 85.1306 36.7564 85.3357 36.8137C85.5703 36.8797 85.8131 36.9125 86.057 36.9113C86.2735 36.9146 86.4893 36.8864 86.6975 36.8277C86.8707 36.7782 87.0341 36.6998 87.1805 36.5957C87.3139 36.4993 87.4278 36.379 87.5161 36.2409C87.603 36.1032 87.667 35.9525 87.7057 35.7948L88.8818 35.791Z" fill="#00ABC8"/>
<path id="Path 201" d="M89.8234 37.6399V32.7188H91.0071V34.7465H94.0689V32.7188H95.2565V37.6399H94.0689V35.6121H91.0071V37.6399H89.8234Z" fill="#00ABC8"/>
<path id="Path 202" d="M96.6208 37.6399V32.7188H101.233V33.5591H97.793V34.7339H100.891V35.5703H97.793V36.806H101.252V37.6399H96.6208Z" fill="#00ABC8"/>
<path id="Path 203" d="M103.404 33.6528H103.335L103.368 33.9823L103.421 37.6424H102.305V32.7188H103.923L105.578 35.6768L105.66 35.9467H105.69L105.775 35.6704L107.427 32.7188H109.045V37.6399H107.933L107.985 33.9823L108.015 33.6503H107.942L106.252 36.901H105.099L103.404 33.6528Z" fill="#00ABC8"/>
<path id="Path 204" d="M110.417 37.6399V32.7188H111.601V37.6399H110.417Z" fill="#00ABC8"/>
<path id="Path 205" d="M118.38 35.7909C118.34 36.0551 118.253 36.3103 118.124 36.5449C117.99 36.7876 117.807 37 117.586 37.1685C117.333 37.3579 117.047 37.5005 116.743 37.5892C116.363 37.6998 115.968 37.7523 115.572 37.7451C115.122 37.7541 114.674 37.6956 114.242 37.5715C113.9 37.4736 113.582 37.3081 113.307 37.0848C113.066 36.8842 112.877 36.6296 112.756 36.3422C112.633 36.0433 112.572 35.7232 112.575 35.4005V34.962C112.572 34.6398 112.633 34.3201 112.756 34.0217C112.877 33.7337 113.066 33.4786 113.307 33.2777C113.582 33.054 113.901 32.8884 114.243 32.7911C114.676 32.6672 115.125 32.6082 115.576 32.6162C115.96 32.6114 116.342 32.6604 116.712 32.7619C117.015 32.8455 117.301 32.9834 117.554 33.1687C117.779 33.3362 117.967 33.5486 118.105 33.7923C118.242 34.0384 118.333 34.3073 118.372 34.5856H117.207C117.172 34.4192 117.107 34.2604 117.016 34.1167C116.925 33.9778 116.809 33.8574 116.672 33.7619C116.524 33.6603 116.359 33.5848 116.184 33.5388C115.984 33.4841 115.776 33.4577 115.568 33.4602C115.321 33.4569 115.075 33.4902 114.838 33.5591C114.633 33.6186 114.441 33.7162 114.273 33.8468C114.115 33.9723 113.989 34.1324 113.905 34.3144C113.816 34.5138 113.772 34.7301 113.777 34.9481V35.4335C113.771 35.6515 113.815 35.8682 113.905 36.0671C113.991 36.2452 114.117 36.4016 114.273 36.5247C114.441 36.6554 114.632 36.7523 114.838 36.8098C115.072 36.8758 115.315 36.9087 115.559 36.9074C115.773 36.91 115.986 36.8819 116.192 36.8237C116.366 36.7743 116.529 36.6958 116.676 36.5918C116.81 36.4954 116.923 36.375 117.012 36.237C117.099 36.0995 117.163 35.9488 117.2 35.7909H118.38Z" fill="#00ABC8"/>
<path id="Path 206" d="M118.636 37.6398L120.978 32.7162H122.515L124.856 37.6398H123.633L123.12 36.4878H120.366L119.853 37.6398H118.636ZM120.724 35.6843H122.767L121.831 33.5527H121.674L120.724 35.6843Z" fill="#00ABC8"/>
<path id="Path 207" d="M125.531 37.6399V32.7226H126.719V36.8085H129.793V37.6399H125.531Z" fill="#00ABC8"/>
<path id="Path 208" d="M135.349 36.2458C135.357 36.4728 135.302 36.6976 135.189 36.8953C135.076 37.093 134.91 37.256 134.709 37.3661C134.463 37.503 134.197 37.5989 133.92 37.65C133.563 37.7171 133.2 37.749 132.837 37.745C132.46 37.7517 132.084 37.7091 131.719 37.6183C131.43 37.5462 131.156 37.4253 130.909 37.2609C130.704 37.1248 130.534 36.9424 130.415 36.7286C130.305 36.5277 130.248 36.3029 130.249 36.0747H131.378C131.379 36.1769 131.4 36.2781 131.439 36.3725C131.49 36.4843 131.569 36.5812 131.669 36.6539C131.803 36.7505 131.955 36.821 132.116 36.8617C132.352 36.9216 132.596 36.9489 132.84 36.9428C133.042 36.9466 133.245 36.9301 133.444 36.8934C133.587 36.8684 133.724 36.8209 133.852 36.7527C133.946 36.7048 134.026 36.6326 134.082 36.5436C134.129 36.4647 134.153 36.375 134.153 36.2838C134.156 36.2017 134.136 36.1203 134.096 36.0486C134.055 35.9768 133.996 35.9174 133.924 35.877C133.713 35.7671 133.484 35.6954 133.247 35.6654L131.906 35.4284C131.484 35.3802 131.084 35.2145 130.753 34.9506C130.631 34.8345 130.535 34.694 130.472 34.5384C130.409 34.3828 130.38 34.2157 130.388 34.0482C130.387 33.9277 130.405 33.8078 130.439 33.6921C130.474 33.5712 130.529 33.4572 130.603 33.355C130.685 33.241 130.786 33.1409 130.9 33.0584C131.038 32.9597 131.189 32.8807 131.349 32.824C131.549 32.7529 131.756 32.7011 131.966 32.6694C132.233 32.6288 132.502 32.6097 132.772 32.6123C133.143 32.6075 133.514 32.6501 133.875 32.7391C134.15 32.8045 134.41 32.9187 134.643 33.0762C134.834 33.2069 134.99 33.3807 135.098 33.5831C135.201 33.7802 135.262 33.9957 135.279 34.2168H134.223C134.206 34.1061 134.171 33.999 134.118 33.9C134.061 33.7967 133.978 33.7095 133.877 33.6465C133.746 33.5657 133.601 33.5083 133.449 33.4767C133.232 33.4314 133.01 33.4105 132.787 33.4146C132.589 33.4103 132.392 33.4303 132.199 33.4741C132.069 33.5027 131.945 33.5538 131.833 33.6249C131.753 33.6753 131.688 33.7452 131.644 33.8277C131.612 33.8964 131.594 33.9715 131.594 34.0476C131.594 34.1237 131.612 34.1988 131.644 34.2675C131.679 34.3363 131.731 34.3952 131.796 34.4386C131.877 34.4945 131.967 34.5373 132.062 34.5653C132.188 34.6032 132.316 34.632 132.446 34.6515L133.674 34.8568C133.926 34.898 134.174 34.9612 134.415 35.0456C134.604 35.1104 134.78 35.2054 134.937 35.327C135.069 35.4323 135.175 35.5669 135.246 35.7198C135.316 35.8863 135.352 36.0653 135.349 36.2458Z" fill="#00ABC8"/>
<path id="Path 209" d="M139.227 37.6399V32.7188H143.839V33.5591H140.402V34.7339H143.501V35.5703H140.402V36.806H143.861V37.6399H139.227Z" fill="#00ABC8"/>
<path id="Path 210" d="M145.756 32.7188L147.21 34.526L148.647 32.7188H150.015L147.985 35.1267L150.189 37.6398H148.82L147.197 35.7528L145.583 37.6398H144.214L146.424 35.1305L144.386 32.7162L145.756 32.7188Z" fill="#00ABC8"/>
<path id="Path 211" d="M156.006 34.4715C156.01 34.709 155.963 34.9447 155.87 35.1635C155.782 35.3624 155.646 35.5366 155.474 35.6704C155.283 35.8143 155.065 35.9194 154.833 35.9796C154.546 36.0533 154.25 36.0886 153.953 36.0848H152.048V37.6399H150.871V32.7188H153.946C154.24 32.715 154.533 32.7491 154.818 32.8202C155.051 32.8768 155.271 32.9761 155.468 33.1129C155.639 33.2347 155.778 33.3961 155.872 33.5831C155.969 33.7805 156.016 33.9976 156.012 34.2168L156.006 34.4715ZM154.804 34.2954C154.807 34.1877 154.788 34.0806 154.75 33.9798C154.714 33.8896 154.655 33.8108 154.577 33.7517C154.486 33.6833 154.381 33.6349 154.27 33.6097C154.118 33.5743 153.963 33.5576 153.807 33.5603H152.046V35.2471H153.753C154.037 35.2708 154.32 35.1994 154.558 35.0444C154.642 34.9706 154.709 34.8787 154.752 34.7756C154.795 34.6726 154.814 34.5612 154.806 34.45L154.804 34.2954Z" fill="#00ABC8"/>
<path id="Path 212" d="M156.508 34.9645C156.505 34.6423 156.567 34.3227 156.69 34.0242C156.81 33.7362 156.999 33.4814 157.241 33.2815C157.516 33.0582 157.833 32.8919 158.174 32.7923C159.048 32.5572 159.968 32.5572 160.842 32.7923C161.183 32.8922 161.501 33.0595 161.776 33.2841C162.016 33.4846 162.205 33.7393 162.326 34.0267C162.449 34.3243 162.511 34.6431 162.508 34.9645V35.4005C162.511 35.7207 162.449 36.0382 162.326 36.3345C162.205 36.6223 162.016 36.877 161.774 37.0772C161.499 37.3013 161.181 37.4685 160.839 37.5689C159.967 37.804 159.047 37.804 158.174 37.5689C157.833 37.4704 157.515 37.3044 157.241 37.081C157 36.881 156.811 36.6267 156.69 36.3396C156.567 36.0407 156.505 35.7206 156.508 35.398V34.9645ZM159.504 36.9048C159.752 36.9074 160 36.8745 160.238 36.8072C160.446 36.7488 160.639 36.6516 160.81 36.5208C160.968 36.3968 161.094 36.2379 161.179 36.057C161.269 35.8579 161.312 35.6414 161.307 35.4233V34.9455C161.312 34.7247 161.268 34.5053 161.179 34.303C161.094 34.1209 160.968 33.9608 160.81 33.8353C160.64 33.7049 160.446 33.6085 160.238 33.5515C159.759 33.4213 159.252 33.4213 158.773 33.5515C158.567 33.6099 158.374 33.7072 158.205 33.8379C158.048 33.9632 157.922 34.1228 157.838 34.3043C157.748 34.5057 157.704 34.7242 157.709 34.9443V35.422C157.703 35.6402 157.747 35.8569 157.838 36.0557C157.923 36.2361 158.048 36.3948 158.205 36.5196C158.374 36.6507 158.567 36.748 158.774 36.806C159.01 36.8745 159.256 36.9073 159.502 36.9036L159.504 36.9048Z" fill="#00ABC8"/>
<path id="Path 213" d="M168.629 34.3689C168.632 34.5202 168.606 34.6707 168.553 34.8124C168.503 34.9369 168.431 35.0516 168.34 35.1508C168.247 35.2523 168.138 35.3379 168.017 35.4043C167.889 35.4756 167.753 35.5346 167.614 35.5804C167.696 35.614 167.774 35.6565 167.847 35.7072C167.911 35.7531 167.969 35.8072 168.02 35.8681C168.07 35.9329 168.113 36.0031 168.148 36.0772C168.188 36.1628 168.222 36.2508 168.25 36.3408L168.44 36.9365C168.48 37.0707 168.53 37.2019 168.588 37.3294C168.638 37.4414 168.702 37.5466 168.779 37.6424H167.521C167.459 37.5653 167.407 37.48 167.369 37.3889C167.317 37.2779 167.274 37.1631 167.241 37.0455L167.033 36.3915C167.012 36.3052 166.972 36.2241 166.918 36.1531C166.864 36.0821 166.796 36.0226 166.718 35.9784C166.529 35.8849 166.321 35.835 166.11 35.8326H164.659V37.6399H163.482V32.7188H166.669C166.95 32.715 167.229 32.7479 167.501 32.8164C167.724 32.8721 167.934 32.9712 168.118 33.1079C168.283 33.2341 168.415 33.398 168.503 33.5857C168.593 33.7918 168.637 34.015 168.631 34.2396L168.629 34.3689ZM167.428 34.2231C167.429 34.1285 167.415 34.0343 167.385 33.9443C167.358 33.8598 167.31 33.7833 167.246 33.7213C167.173 33.6536 167.085 33.603 166.99 33.573C166.865 33.5348 166.735 33.5168 166.605 33.5197H164.668V34.9975H166.385C166.653 35.012 166.92 34.9504 167.154 34.82C167.243 34.7627 167.316 34.6829 167.364 34.5887C167.412 34.4945 167.434 34.3893 167.428 34.284V34.2231Z" fill="#00ABC8"/>
<path id="Path 214" d="M172.346 33.559V37.6399H171.162V33.559H169.093V32.7201H174.411V33.559H172.346Z" fill="#00ABC8"/>
<path id="Path 215" d="M183.461 35.7909C183.421 36.0552 183.334 36.3105 183.204 36.5449C183.071 36.7872 182.888 36.9996 182.668 37.1684C182.414 37.3577 182.128 37.5002 181.823 37.5892C181.443 37.6997 181.048 37.7523 180.652 37.7451C180.202 37.754 179.754 37.6955 179.321 37.5715C178.98 37.4736 178.662 37.308 178.387 37.0848C178.147 36.8842 177.958 36.6296 177.837 36.3421C177.714 36.0433 177.652 35.7232 177.656 35.4005V34.962C177.652 34.6398 177.714 34.32 177.837 34.0217C177.957 33.7334 178.146 33.4782 178.387 33.2777C178.662 33.054 178.981 32.8884 179.323 32.7911C179.755 32.6673 180.205 32.6083 180.655 32.6162C181.039 32.6113 181.422 32.6604 181.793 32.7619C182.096 32.846 182.381 32.9838 182.634 33.1687C182.859 33.3369 183.047 33.5491 183.185 33.7923C183.323 34.0383 183.414 34.3072 183.454 34.5856H182.283C182.249 34.4194 182.184 34.2607 182.094 34.1167C182.003 33.9775 181.886 33.857 181.749 33.7618C181.601 33.6603 181.437 33.5848 181.263 33.5388C181.062 33.4842 180.855 33.4578 180.646 33.4602C180.399 33.4569 180.153 33.4902 179.916 33.5591C179.71 33.6188 179.518 33.7164 179.35 33.8468C179.193 33.9727 179.067 34.1327 178.983 34.3144C178.894 34.5138 178.85 34.7301 178.855 34.9481V35.4335C178.85 35.6515 178.893 35.8679 178.983 36.0671C179.069 36.2463 179.195 36.404 179.351 36.5284C179.518 36.6592 179.71 36.7561 179.916 36.8136C180.15 36.8796 180.393 36.9125 180.637 36.9112C180.851 36.9138 181.064 36.8856 181.27 36.8275C181.443 36.7781 181.606 36.6996 181.753 36.5956C181.886 36.4992 182 36.3788 182.089 36.2408C182.175 36.103 182.239 35.9524 182.278 35.7947L183.461 35.7909Z" fill="#00ABC8"/>
<path id="Path 216" d="M184.013 34.9645C184.01 34.6423 184.072 34.3227 184.195 34.0242C184.315 33.7362 184.504 33.4814 184.745 33.2815C185.021 33.0582 185.338 32.8919 185.679 32.7923C186.553 32.5572 187.473 32.5572 188.347 32.7923C188.688 32.8922 189.006 33.0595 189.281 33.2841C189.521 33.4846 189.71 33.7393 189.831 34.0267C189.954 34.3243 190.016 34.6431 190.012 34.9645V35.4005C190.016 35.7207 189.954 36.0383 189.831 36.3345C189.71 36.622 189.52 36.8766 189.279 37.0772C189.004 37.3013 188.686 37.4685 188.344 37.5689C187.472 37.804 186.552 37.804 185.679 37.5689C185.338 37.4704 185.02 37.3044 184.745 37.081C184.504 36.8813 184.315 36.627 184.195 36.3396C184.071 36.041 184.009 35.7208 184.013 35.398V34.9645ZM187.009 36.9048C187.257 36.9074 187.505 36.8745 187.743 36.8072C187.95 36.7491 188.144 36.6518 188.313 36.5208C188.471 36.3965 188.598 36.2377 188.684 36.057C188.774 35.8581 188.818 35.6414 188.812 35.4233V34.9455C188.818 34.7246 188.774 34.5051 188.684 34.303C188.6 34.1224 188.475 33.9633 188.32 33.8379C188.15 33.7072 187.957 33.6107 187.75 33.554C187.27 33.4239 186.764 33.4239 186.284 33.554C186.078 33.6124 185.885 33.7097 185.717 33.8404C185.559 33.9657 185.433 34.1254 185.349 34.3068C185.259 34.5081 185.215 34.7267 185.221 34.9468V35.4246C185.216 35.6426 185.259 35.859 185.349 36.0582C185.434 36.2389 185.56 36.3977 185.718 36.5221C185.886 36.6532 186.079 36.7505 186.285 36.8085C186.522 36.8758 186.767 36.9086 187.013 36.9061L187.009 36.9048Z" fill="#00ABC8"/>
<path id="Path 217" d="M192.091 33.6528H192.022L192.054 33.9823L192.107 37.6424H190.992V32.7188H192.61L194.264 35.6768L194.346 35.9467H194.379L194.465 35.6704L196.115 32.7188H197.734V37.6399H196.622L196.675 33.9823L196.704 33.6503H196.631L194.942 36.901H193.789L192.091 33.6528Z" fill="#00ABC8"/>
<path id="Path 218" d="M204.245 34.4715C204.251 34.7084 204.207 34.944 204.117 35.1635C204.029 35.3624 203.892 35.5366 203.72 35.6704C203.529 35.8142 203.311 35.9193 203.079 35.9796C202.791 36.0532 202.494 36.0886 202.196 36.0848H200.293V37.6398H199.115V32.7188H202.19C202.484 32.715 202.777 32.7491 203.062 32.8202C203.296 32.8764 203.516 32.9757 203.712 33.1129C203.884 33.2347 204.023 33.3961 204.117 33.5831C204.212 33.7808 204.26 33.9977 204.256 34.2168L204.245 34.4715ZM203.044 34.2953C203.046 34.1877 203.027 34.0807 202.989 33.9798C202.954 33.89 202.895 33.8112 202.818 33.7517C202.726 33.6835 202.621 33.6352 202.509 33.6097C202.358 33.5742 202.202 33.5576 202.047 33.5603H200.284V35.2471H201.991C202.275 35.2714 202.559 35.2 202.796 35.0443C202.88 34.9706 202.947 34.8787 202.99 34.7756C203.033 34.6726 203.052 34.5612 203.044 34.45V34.2953Z" fill="#00ABC8"/>
<path id="Path 219" d="M203.922 37.6398L206.264 32.7162H207.801L210.143 37.6398H208.918L208.406 36.4878H205.653L205.14 37.6398H203.922ZM206.012 35.6843H208.048L207.107 33.5502H206.949L206.012 35.6843Z" fill="#00ABC8"/>
<path id="Path 220" d="M215.057 37.6399L211.931 34.0913H211.902L211.939 34.4044L211.954 37.6348H210.827V32.7188H211.998L215.152 36.3282H215.178L215.148 36.0481L215.132 32.7201H216.26V37.6399H215.057Z" fill="#00ABC8"/>
<path id="Path 221" d="M220.419 35.9087V37.6399H219.234V35.9087L216.807 32.7188H218.16L219.825 35.0368L221.491 32.7188H222.842L220.419 35.9087Z" fill="#00ABC8"/>
</g>
</g>
<path id="Line 58" d="M83.0797 44.6457H223" stroke="#003F7C" stroke-width="3" stroke-miterlimit="10"/>
<g id="Group 172">
<path id="Path 270" d="M153.274 59.0008C152.611 60.2554 151.897 60.9474 150.594 60.9474C148.62 60.9474 147.202 59.4177 147.202 57.1251C147.202 55.3116 148.345 53.6007 150.487 53.6007C151.855 53.6007 152.695 54.133 153.04 55.4789L153.424 55.3965C153.349 54.707 153.256 54.1836 153.155 53.4955C152.392 53.2947 151.61 53.1778 150.821 53.147C147.907 53.147 145.815 54.8262 145.815 57.3862C145.815 59.3049 147.26 61.4239 150.501 61.4239C151.315 61.3906 152.123 61.2734 152.912 61.0741C153.209 60.4529 153.453 59.8081 153.642 59.1465L153.274 59.0008ZM163.295 53.3244H159.892V53.6906C160.892 53.773 160.993 53.8402 160.993 54.8617V56.7766H156.683V54.8642C156.683 53.8339 156.784 53.7756 157.759 53.6932V53.3269H154.371V53.6932C155.412 53.7756 155.505 53.8339 155.505 54.8642V59.7004C155.505 60.732 155.412 60.7979 154.404 60.8802V61.23H157.83V60.8802C156.788 60.7979 156.687 60.7231 156.687 59.7004V57.3241H160.997V59.7004C160.997 60.732 160.895 60.7979 159.812 60.8802V61.23H163.299V60.8802C162.265 60.7979 162.156 60.7307 162.156 59.7004V54.8642C162.156 53.8339 162.257 53.7756 163.299 53.6932L163.295 53.3244ZM170.341 59.2074C170.192 59.6293 169.975 60.025 169.7 60.3796C169.415 60.6952 169.038 60.7776 168.122 60.7776C167.551 60.7776 167.081 60.7776 166.841 60.6369C166.601 60.4962 166.539 60.2136 166.539 59.6395V57.4103H167.692C168.792 57.4103 168.884 57.4762 169.06 58.3671H169.444V55.9769H169.06C168.901 56.7994 168.816 56.8995 167.692 56.8995H166.539V54.1748C166.539 53.8085 166.564 53.7756 166.976 53.7756H167.908C168.774 53.7756 169.118 53.8592 169.303 54.1241C169.499 54.4506 169.638 54.8075 169.714 55.1798L170.099 55.1303C170.048 54.4498 169.998 53.6425 169.98 53.3269H164.285V53.6932C165.26 53.7756 165.368 53.8098 165.368 54.9238V59.6839C165.368 60.6813 165.258 60.7979 164.124 60.8802V61.23H170.288C170.397 60.841 170.641 59.7168 170.725 59.2606L170.341 59.2074ZM181.925 61.2275V60.8777C180.832 60.7776 180.8 60.6952 180.757 59.4165L180.64 55.029C180.597 53.8237 180.672 53.7819 181.773 53.6906V53.3269H179.572L176.684 59.2999L173.836 53.3257H171.692V53.6919C172.819 53.7996 172.894 53.8668 172.787 55.4459L172.602 57.8893C172.501 59.1934 172.424 59.7168 172.357 60.1401C172.257 60.6217 172.014 60.7966 171.291 60.8638V61.2288H174.238V60.8625C173.407 60.7801 173.112 60.6965 173.085 60.1224C173.057 59.455 173.065 58.7866 173.109 58.12L173.294 54.7058H173.327L176.156 61.1527H176.412L179.487 54.5398H179.537L179.579 59.4165C179.596 60.6965 179.547 60.7789 178.53 60.879V61.2275H181.925ZM186.192 61.2275V60.8777C185.175 60.8029 185.066 60.7282 185.066 59.6813V54.8883C185.066 53.8339 185.176 53.7578 186.192 53.6919V53.3257H182.764V53.6919C183.789 53.7566 183.897 53.8326 183.897 54.8883V59.6826C183.897 60.7294 183.789 60.8042 182.764 60.879V61.2288L186.192 61.2275ZM194.541 58.9995C193.877 60.2542 193.163 60.9436 191.861 60.9436C189.886 60.9436 188.468 59.4152 188.468 57.1213C188.468 55.309 189.61 53.5981 191.752 53.5981C193.121 53.5981 193.96 54.1304 194.305 55.4763L194.689 55.3927C194.614 54.7032 194.52 54.1798 194.42 53.4917C193.657 53.2905 192.874 53.1732 192.085 53.1419C189.17 53.1419 187.078 54.8211 187.078 57.3811C187.078 59.3011 188.523 61.4201 191.766 61.4201C192.58 61.3867 193.387 61.2699 194.177 61.0716C194.474 60.4499 194.718 59.8047 194.907 59.1427L194.541 58.9995ZM203.772 61.2275V60.8777C202.957 60.7953 202.781 60.6623 202.377 59.5901C201.546 57.4559 200.739 55.2926 199.934 53.1419L199.497 53.2496L196.859 59.5863C196.414 60.6673 196.238 60.7497 195.422 60.8739V61.2237H198.194V60.8739C197.244 60.7738 197.145 60.6331 197.413 59.8943C197.573 59.4114 197.741 58.9387 197.951 58.3811H200.641C200.91 59.0794 201.137 59.6864 201.312 60.168C201.488 60.6496 201.371 60.7662 200.591 60.8739V61.2237L203.772 61.2275ZM200.462 57.8361H198.156C198.54 56.8552 198.925 55.8172 199.332 54.8122H199.356L200.462 57.8361ZM210.326 59.1909C210.189 59.6388 209.957 60.0527 209.646 60.405C209.362 60.7206 208.916 60.7941 208.252 60.7941C207.856 60.8255 207.458 60.7714 207.085 60.6356C206.848 60.5089 206.789 60.2795 206.789 59.6129V54.8883C206.789 53.8237 206.907 53.7578 207.899 53.6919V53.3257H204.496V53.6919C205.538 53.7566 205.621 53.8326 205.621 54.8883V59.6585C205.621 60.7218 205.512 60.7991 204.437 60.879V61.2288H210.226C210.354 60.8549 210.611 59.6826 210.696 59.2669L210.326 59.1909ZM216.064 55.1608C215.954 54.3636 215.896 53.8643 215.845 53.4334C215.321 53.2526 214.771 53.1539 214.216 53.1406C212.577 53.1406 211.587 54.1469 211.587 55.3597C211.587 56.6968 212.787 57.3038 213.661 57.736C214.618 58.234 215.29 58.6497 215.29 59.5305C215.32 59.8801 215.208 60.2269 214.979 60.4947C214.75 60.7625 214.423 60.9295 214.07 60.9588C213.993 60.9664 213.916 60.9664 213.84 60.9588C212.559 60.9588 211.942 59.6915 211.732 58.9159L211.347 59.0236C211.428 59.6746 211.543 60.321 211.692 60.9601C211.892 61.0614 212.099 61.1462 212.313 61.2136C212.719 61.3492 213.144 61.4164 213.572 61.4125C215.287 61.4125 216.411 60.3746 216.411 59.0705C216.411 57.7322 215.303 57.1593 214.234 56.6435C213.209 56.1531 212.63 55.7374 212.63 54.8819C212.618 54.5425 212.743 54.2123 212.977 53.964C213.211 53.7157 213.536 53.5695 213.879 53.5576C213.925 53.5576 213.97 53.5576 214.016 53.5576C215.073 53.5576 215.46 54.4384 215.681 55.2203L216.064 55.1608Z" fill="#00ABC8"/>
<g id="Group 135">
<g id="Group 134">
<path id="Path 267" d="M105.528 52.6654H105.585L105.819 52.3853C105.327 51.834 104.626 51.2701 104.626 50.4247C104.626 49.8506 104.972 49.3171 105.883 49.3171C106.242 49.3222 106.592 49.43 106.89 49.6276L106.957 49.5566C106.794 49.2056 106.657 48.9229 106.585 48.7962C106.25 48.5123 105.818 48.3642 105.377 48.3818C105.192 48.3706 105.007 48.3957 104.832 48.4555C104.657 48.5152 104.495 48.6086 104.356 48.7302C104.218 48.8518 104.105 48.9992 104.024 49.1641C103.943 49.329 103.896 49.508 103.885 49.6909C103.881 49.7509 103.881 49.811 103.885 49.8709C103.885 50.9469 104.602 51.8112 105.528 52.6654Z" fill="#00ABC8"/>
<path id="Path 268" d="M120.991 53.1014C119.465 50.1865 119.141 49.2208 117.632 49.2208C117.103 49.2139 116.575 49.2831 116.066 49.4261L116.478 50.5185L116.544 50.5654C117.011 50.4335 117.493 50.364 117.978 50.3588C118.913 50.3588 119.187 50.7492 119.643 51.6579C119.889 52.1382 120.11 52.6198 120.327 53.1001H89.5364L89.4711 53.1875L89.8554 53.9619H91.8795C91.9597 54.4441 92.0004 54.9319 92.0012 55.4206C92.009 55.8161 91.9602 56.2108 91.8565 56.5929C91.6141 56.5485 91.3687 56.5219 91.1224 56.513C90.939 56.5127 90.7625 56.5819 90.6291 56.7064C90.4956 56.8308 90.4155 57.0011 90.405 57.1822C90.4792 57.6527 90.6615 58.1001 90.9379 58.4901C91.5336 59.4697 92.6033 60.5457 94.0407 61.6787H94.1137L94.6608 60.642C93.5919 60.107 92.62 59.4003 91.7847 58.5509C92.1578 58.2956 92.4618 57.9535 92.6699 57.5548C93.3846 57.9189 94.1724 58.1202 94.9759 58.1441C95.3313 58.145 95.6855 58.1051 96.0315 58.025L95.9982 61.1084L96.9091 61.3479L96.9898 61.2605L96.9488 53.9593H105.532V55.5384H101.438L101.372 55.6348L101.741 56.4788C103.063 56.6385 103.386 57.2392 103.386 57.6422C103.376 58.0095 103.219 58.3579 102.951 58.6116C102.682 58.8653 102.323 59.0038 101.951 58.997C100.88 58.997 99.8735 57.9692 98.955 55.7539L98.4297 56.034V56.0986C99.5507 58.8551 100.879 60.0755 102.386 60.0755C102.851 60.085 103.302 59.9114 103.638 59.5928C103.974 59.2741 104.169 58.8365 104.179 58.376V58.3392C104.137 57.6678 103.899 57.0229 103.494 56.4826H105.524L105.492 61.1134L106.389 61.3517L106.47 61.2643L106.437 53.9631H109.639C109.915 54.2301 110.082 54.5885 110.107 54.9694C110.107 55.6462 109.293 55.9098 108.197 56.2684L108.124 56.3964C108.655 57.9819 109.72 59.3113 111.298 59.3113C111.899 59.3363 112.49 59.1574 112.974 58.8044L112.942 61.0995L113.851 61.339L113.932 61.2516L113.889 53.9606H120.215V55.4814C119.642 55.4409 119.062 55.4332 118.434 55.4332C116.356 55.4332 115.68 56.167 115.68 57.3545C115.68 58.5902 116.461 59.9374 118.007 61.3403H118.08L118.773 60.3594C117.314 59.4837 116.501 58.5496 116.501 57.7373C116.501 57.0276 117.169 56.4218 118.967 56.4218C119.401 56.4218 119.819 56.4218 120.216 56.4459L120.183 61.1084L121.079 61.3479L121.16 61.2605L121.128 53.9593H122.586L122.651 53.8719L122.267 53.0976L120.991 53.1014ZM96.029 56.9287C95.471 57.0544 94.9011 57.1211 94.329 57.1277C93.8207 57.1306 93.3159 57.0448 92.8378 56.8742C92.9072 56.5407 92.9403 56.2008 92.9364 55.8603C92.9346 55.2266 92.8729 54.5944 92.7519 53.972H96.0302L96.029 56.9287ZM112.974 56.7931C112.992 57.0195 112.95 57.2466 112.852 57.4521C112.754 57.6576 112.604 57.8345 112.417 57.9654C111.991 58.2502 111.488 58.4004 110.974 58.3963C110.591 58.4104 110.215 58.2954 109.906 58.0703C109.598 57.8451 109.376 57.523 109.277 57.1568C109.277 57.0618 109.343 56.9971 109.494 56.9414C110.565 56.5523 111.002 56.181 111.002 55.4206C110.959 54.8898 110.766 54.3816 110.445 53.9543H112.975L112.974 56.7931Z" fill="#00ABC8"/>
<path id="Path 269" d="M141.723 53.8693L141.338 53.095H125.946L125.881 53.1824L126.265 53.9568H128.287C128.369 54.4388 128.412 54.9266 128.415 55.4155C128.423 55.811 128.374 56.2057 128.27 56.5878C128.028 56.5435 127.782 56.5168 127.536 56.5079C127.353 56.5076 127.176 56.5768 127.043 56.7013C126.909 56.8257 126.829 56.996 126.819 57.1771C126.893 57.6476 127.075 58.095 127.352 58.485C127.947 59.4646 129.017 60.5406 130.454 61.6723H130.527L131.074 60.6369C130.005 60.1037 129.031 59.3988 128.194 58.5509C128.568 58.2959 128.872 57.9538 129.08 57.5548C129.794 57.9198 130.582 58.1216 131.386 58.1453C131.741 58.1463 132.095 58.1063 132.441 58.0262L132.408 61.1096L133.319 61.3492L133.4 61.2617L133.359 53.9606H139.266V54.9656C139.268 54.9906 139.266 55.0158 139.258 55.0398C139.251 55.0638 139.238 55.0861 139.222 55.1054C139.206 55.1248 139.186 55.1407 139.164 55.1524C139.141 55.1641 139.117 55.1712 139.091 55.1734C139.077 55.1759 139.062 55.1759 139.048 55.1734H138.073C137.017 55.1734 136.268 55.2862 135.841 55.541C135.625 55.6696 135.448 55.8538 135.328 56.074C135.209 56.2942 135.152 56.5422 135.164 56.7918C135.164 57.3976 135.525 58.0034 136.181 58.5864C135.956 58.9252 135.838 59.322 135.841 59.727C135.841 61.5836 137.655 62.7483 140.581 63.4808H140.638L141.233 62.5328C138.728 62.2794 136.81 61.6242 136.81 60.1173C136.81 58.8348 138.502 58.1884 139.316 58.1884C139.977 58.1884 140.242 58.4356 140.242 58.7625C140.242 59.2885 139.541 59.727 138.615 60.1249C138.854 60.4228 139.115 60.7024 139.396 60.9613H139.453C140.379 60.5393 140.99 59.9969 140.99 59.2555C140.968 58.7121 140.735 58.1981 140.338 57.8218C139.941 57.4455 139.412 57.2362 138.862 57.2379C137.997 57.2422 137.165 57.5632 136.525 58.139C136.398 58.0327 136.297 57.8995 136.229 57.7492C136.161 57.599 136.128 57.4355 136.132 57.2709C136.132 57.13 136.163 56.9909 136.225 56.8638C136.286 56.7368 136.376 56.6251 136.487 56.5371C136.825 56.2418 137.631 56.0834 138.665 56.0834C139.177 56.0834 139.631 56.091 140.091 56.1075L140.187 55.9959L140.171 53.9682H141.654L141.723 53.8693ZM132.44 56.9211C131.882 57.0465 131.312 57.1136 130.74 57.1213C130.232 57.1237 129.728 57.0379 129.25 56.8679C129.318 56.532 129.35 56.1901 129.346 55.8477C129.344 55.2139 129.282 54.5817 129.16 53.9593H132.44V56.9211Z" fill="#00ABC8"/>
</g>
</g>
<g id="Group 152">
<path id="Path 273" d="M85.1692 51.1243C84.4236 51.4044 83.9829 51.7149 83.9829 52.3219C83.9932 52.5612 84.0928 52.7882 84.2625 52.9591C84.4321 53.13 84.6598 53.2326 84.9014 53.2471C84.9632 53.2596 85.0181 53.2942 85.0556 53.3442C85.0932 53.3943 85.1108 53.4562 85.1051 53.5183C85.1001 53.6768 85.0322 53.8269 84.9162 53.9362C84.8002 54.0455 84.6453 54.1053 84.4851 54.1025C84.0987 54.0838 83.7351 53.9164 83.4718 53.636C83.2085 53.3557 83.0664 52.9846 83.0759 52.602C83.0759 51.5767 84.0739 50.9076 84.9975 50.701L85.1692 51.1243ZM87.8402 51.1243C87.078 51.4044 86.6386 51.7149 86.6386 52.3219C86.6501 52.5636 86.7523 52.7924 86.9253 52.9635C87.0982 53.1346 87.3295 53.2357 87.5738 53.2471C87.6335 53.2632 87.686 53.2987 87.723 53.3479C87.7599 53.3971 87.7791 53.4571 87.7775 53.5183C87.7708 53.6798 87.6996 53.8321 87.5795 53.9416C87.4594 54.0512 87.3002 54.1091 87.1369 54.1025C86.7525 54.0813 86.3916 53.9127 86.1306 53.6326C85.8697 53.3524 85.7293 52.9828 85.7393 52.602C85.7393 51.5767 86.7283 50.9076 87.6609 50.701L87.8402 51.1243Z" fill="#00ABC8"/>
</g>
<g id="Group 153">
<path id="Path 274" d="M220.107 51.6021C220.107 52.6286 219.134 53.3041 218.198 53.5373L218.041 53.1013C218.779 52.7985 219.22 52.4791 219.22 51.8568C219.22 51.3296 218.771 51.0255 218.284 50.9494C218.219 50.9368 218.162 50.8998 218.124 50.8461C218.086 50.7925 218.07 50.7264 218.081 50.6617C218.084 50.5075 218.148 50.3608 218.26 50.2532C218.372 50.1456 218.522 50.0857 218.678 50.0864C218.871 50.0911 219.061 50.1336 219.238 50.2113C219.415 50.2891 219.574 50.4006 219.707 50.5394C219.84 50.6782 219.944 50.8417 220.013 51.0203C220.082 51.199 220.114 51.3894 220.109 51.5805C220.109 51.5877 220.108 51.5949 220.107 51.6021ZM222.842 51.6021C222.842 52.6286 221.818 53.3041 220.886 53.5373L220.731 53.1013C221.463 52.7985 221.917 52.4791 221.917 51.8568C221.917 51.3296 221.463 51.0255 220.982 50.9494C220.917 50.9368 220.86 50.8998 220.822 50.8461C220.784 50.7925 220.768 50.7264 220.779 50.6617C220.784 50.5036 220.853 50.3542 220.97 50.2463C221.087 50.1384 221.243 50.0809 221.402 50.0864C221.796 50.1003 222.168 50.2673 222.438 50.5511C222.707 50.835 222.853 51.2127 222.842 51.6021Z" fill="#00ABC8"/>
</g>
</g>
</g>
</g>
</g>
<defs>
<clipPath id="clip0_19_800">
<rect width="1440" height="6399" fill="white" transform="translate(-135 -20)"/>
</clipPath>
<clipPath id="clip1_19_800">
<rect width="223" height="70" fill="white"/>
</clipPath>
</defs>
</svg>