<svg xmlns="http://www.w3.org/2000/svg" width="223" height="70" viewBox="0 0 223 70" fill="none">
  <g clip-path="url(#clip0_102_3474)">
    <path d="M64.3772 28.5328C66.7445 28.5328 68.6637 26.6342 68.6637 24.2923C68.6637 21.9503 66.7445 20.0518 64.3772 20.0518C62.0098 20.0518 60.0906 21.9503 60.0906 24.2923C60.0906 26.6342 62.0098 28.5328 64.3772 28.5328Z" fill="white"/>
    <path d="M64.1965 33.9711C64.4375 33.8991 64.673 33.8101 64.9011 33.705C64.9946 33.6669 65.0907 33.6314 65.1881 33.5998C66.0228 33.3311 66.9193 33.3134 67.7642 33.5489C68.6091 33.7843 69.3645 34.2624 69.9347 34.9226C70.5049 35.5828 70.8645 36.3954 70.9678 37.2577C71.0711 38.1201 70.9136 38.9933 70.5151 39.7671C70.1167 40.5408 69.4953 41.1803 68.7294 41.6047C67.9636 42.029 67.0877 42.2191 66.2126 42.151C65.3376 42.0828 64.5026 41.7595 63.8133 41.2218C63.124 40.6841 62.6114 39.9563 62.3402 39.1304C62.0094 38.1189 61.4588 37.1913 60.7271 36.4127C59.9954 35.634 59.1004 35.0232 58.1048 34.623C57.1092 34.2228 56.0371 34.0429 54.9638 34.0961C53.8905 34.1492 52.842 34.434 51.8917 34.9305C51.0261 35.4118 50.0509 35.6673 49.058 35.6731C48.065 35.6788 47.0869 35.4346 46.2157 34.9633C45.3445 34.4921 44.6087 33.8093 44.0777 32.9793C43.5467 32.1492 43.2379 31.1992 43.1803 30.2185C43.0928 28.9322 43.4417 27.6538 44.1717 26.5858C44.9018 25.5179 45.9712 24.7215 47.2106 24.3229C47.458 24.2436 47.7105 24.1809 47.9664 24.1353C48.1151 24.0973 48.2637 24.0567 48.411 24.0086C49.3324 23.713 50.1859 23.2407 50.9227 22.6188C51.6596 21.9968 52.2654 21.2374 52.7056 20.3838C53.1457 19.5303 53.4116 18.5993 53.488 17.644C53.5645 16.6888 53.4499 15.728 53.151 14.8166C53.0716 14.5766 52.9819 14.3439 52.882 14.1183C52.8435 14.0245 52.8077 13.9307 52.7756 13.8331C52.5965 13.2847 52.5283 12.7067 52.5749 12.1321C52.6215 11.5576 52.7821 10.9977 53.0474 10.4846C53.3128 9.97142 53.6777 9.51499 54.1213 9.14135C54.565 8.7677 55.0787 8.48416 55.6331 8.30692C56.1875 8.12967 56.7718 8.06219 57.3526 8.10832C57.9334 8.15445 58.4993 8.3133 59.018 8.57579C59.5367 8.83829 59.9981 9.19928 60.3758 9.63817C60.7535 10.0771 61.0401 10.5852 61.2193 11.1337C61.9662 13.4339 60.5595 15.5808 58.3663 16.6517C55.9476 17.8316 54.7088 19.7098 54.1067 21.5943C52.905 25.3532 54.2348 29.4239 57.2454 32.0004C59.0286 33.5313 61.4255 34.7315 64.1965 33.9711Z" fill="white"/>
    <path d="M54.4513 63.2007C56.8187 63.2007 58.7378 61.3022 58.7378 58.9602C58.7378 56.6183 56.8187 54.7197 54.4513 54.7197C52.0839 54.7197 50.1648 56.6183 50.1648 58.9602C50.1648 61.3022 52.0839 63.2007 54.4513 63.2007Z" fill="white"/>
    <path d="M58.0857 49.51C56.7971 48.7917 55.3369 48.4297 53.8581 48.4619C49.8753 48.4936 46.3702 50.9965 44.8252 54.63C43.9092 56.7845 43.4967 59.4104 45.0814 61.7816C45.2249 61.9866 45.3833 62.1811 45.5554 62.3633C45.6208 62.4406 45.6835 62.5192 45.745 62.6015C46.2608 63.3038 46.5545 64.1415 46.589 65.0089C46.6235 65.8762 46.3972 66.7342 45.9388 67.4744C45.4803 68.2145 44.8103 68.8035 44.0135 69.167C43.2167 69.5304 42.3288 69.6519 41.4621 69.5161C40.5955 69.3804 39.789 68.9934 39.1446 68.4042C38.5003 67.815 38.0471 67.05 37.8422 66.2059C37.6374 65.3619 37.6901 64.4767 37.9938 63.6623C38.2975 62.848 38.8385 62.141 39.5484 61.6308C40.4177 61.0062 41.1385 60.2013 41.6604 59.2724C42.1823 58.3434 42.4927 57.3129 42.5698 56.2528C42.6469 55.1928 42.489 54.1289 42.1069 53.1355C41.7249 52.1422 41.128 51.2435 40.3581 50.5023C39.7598 49.9501 39.2847 49.2804 38.9632 48.5361C38.6417 47.7919 38.4808 46.9893 38.4909 46.18C38.501 45.3706 38.6819 44.5723 39.0219 43.8361C39.3618 43.0999 39.8535 42.442 40.4653 41.9046C41.0772 41.3672 41.7957 40.9621 42.5749 40.7153C43.3542 40.4685 44.1769 40.3854 44.9905 40.4713C45.8041 40.5572 46.5905 40.8102 47.2995 41.2142C48.0085 41.6181 48.6245 42.1641 49.1079 42.8172C49.2602 43.0262 49.3988 43.2446 49.523 43.4711C49.6049 43.5978 49.6895 43.7246 49.7792 43.8513C50.3485 44.6267 51.0667 45.2835 51.8927 45.7842C52.7187 46.2849 53.6364 46.6198 54.5932 46.7696C55.5501 46.9194 56.5274 46.8813 57.4693 46.6574C58.4113 46.4335 59.2994 46.0282 60.0829 45.4646C60.2872 45.3188 60.4835 45.1622 60.671 44.9957C60.7478 44.9311 60.8285 44.869 60.9118 44.8081C61.3837 44.4701 61.9183 44.2274 62.485 44.0937C63.0518 43.9601 63.6395 43.9382 64.2148 44.0293C64.7901 44.1204 65.3417 44.3227 65.8379 44.6246C66.3342 44.9265 66.7655 45.3222 67.1071 45.7891C67.4488 46.2559 67.6942 46.7847 67.8293 47.3454C67.9644 47.906 67.9865 48.4875 67.8945 49.0566C67.8024 49.6257 67.5979 50.1714 67.2927 50.6623C66.9875 51.1532 66.5875 51.5799 66.1156 51.9179C64.135 53.3322 61.6318 52.672 59.9305 50.9395C59.3841 50.3789 58.761 49.8969 58.0793 49.5074" fill="white"/>
    <path d="M18.0544 64.5757C20.4217 64.5757 22.3409 62.6772 22.3409 60.3352C22.3409 57.9933 20.4217 56.0947 18.0544 56.0947C15.687 56.0947 13.7678 57.9933 13.7678 60.3352C13.7678 62.6772 15.687 64.5757 18.0544 64.5757Z" fill="white"/>
    <path d="M12.4509 52.3994C12.2997 52.5981 12.1631 52.8073 12.0422 53.0254C11.9884 53.1103 11.932 53.194 11.8718 53.2789C11.3558 53.9807 10.6411 54.5154 9.81803 54.8155C8.99493 55.1155 8.10038 55.1674 7.24746 54.9647C6.39453 54.7619 5.62151 54.3135 5.02611 53.6763C4.4307 53.039 4.03964 52.2414 3.90234 51.3843C3.76504 50.5272 3.88767 49.6491 4.25473 48.8609C4.6218 48.0727 5.21681 47.4099 5.96458 46.9562C6.71234 46.5025 7.57929 46.2783 8.45584 46.3119C9.33239 46.3455 10.1792 46.6354 10.8892 47.145C11.6726 47.7083 12.5604 48.1133 13.502 48.3371C14.4436 48.5609 15.4205 48.5989 16.377 48.4491C17.3335 48.2993 18.2508 47.9645 19.0765 47.464C19.9021 46.9634 20.62 46.3068 21.1892 45.5317C21.4351 45.1955 21.652 44.8394 21.8374 44.4671C22.1942 43.699 22.716 43.017 23.3665 42.4686C24.0169 41.9203 24.7803 41.5188 25.6036 41.2921C26.4269 41.0655 27.2902 41.019 28.1334 41.156C28.9767 41.293 29.7796 41.6102 30.4864 42.0855C31.1931 42.5608 31.7866 43.1828 32.2255 43.9081C32.6645 44.6335 32.9384 45.4447 33.0281 46.2855C33.1178 47.1262 33.0212 47.9761 32.745 48.7762C32.4688 49.5762 32.0197 50.307 31.4289 50.9179C31.3315 51.0344 31.2354 51.1536 31.1445 51.2778C29.9956 52.8426 29.5216 54.7946 29.8267 56.7049C30.1317 58.6152 31.1909 60.3276 32.7715 61.4659C32.9764 61.6129 33.1878 61.7498 33.403 61.874C33.4889 61.9272 33.5747 61.983 33.6593 62.0425C34.6106 62.7282 35.2476 63.7597 35.4302 64.91C35.6128 66.0603 35.326 67.2353 34.6329 68.1764C34.2897 68.6424 33.8571 69.037 33.3597 69.3376C32.8624 69.6382 32.3101 69.8389 31.7343 69.9284C30.5715 70.109 29.3838 69.8253 28.4324 69.1396C26.4608 67.7126 26.3238 65.1576 27.4614 63.0171C28.7181 60.6561 28.6028 58.4154 27.9738 56.5385C26.7119 52.7998 23.2222 50.2766 19.2522 49.9483C16.8924 49.7506 14.2393 50.1739 12.4509 52.3994Z" fill="white"/>
    <path d="M5.48561 30.7569C7.85299 30.7569 9.77213 28.8583 9.77213 26.5164C9.77213 24.1744 7.85299 22.2759 5.48561 22.2759C3.11823 22.2759 1.1991 24.1744 1.1991 26.5164C1.1991 28.8583 3.11823 30.7569 5.48561 30.7569Z" fill="white"/>
    <path d="M11.3837 18.7906C11.1457 18.7089 10.9021 18.6441 10.6548 18.5967C10.5561 18.5714 10.4575 18.5448 10.3589 18.5144C9.52442 18.2461 8.78913 17.7391 8.24595 17.0575C7.70278 16.3758 7.37611 15.5502 7.30725 14.6849C7.2384 13.8196 7.43045 12.9535 7.85913 12.1962C8.2878 11.4389 8.93385 10.8243 9.71558 10.4302C10.4973 10.0361 11.3796 9.8801 12.2509 9.98203C13.1223 10.084 13.9435 10.4392 14.6107 11.0028C15.278 11.5664 15.7613 12.3131 15.9996 13.1484C16.2379 13.9838 16.2205 14.8703 15.9495 15.6958C15.6504 16.6073 15.5357 17.5682 15.612 18.5236C15.6884 19.479 15.9542 20.4101 16.3944 21.2638C16.8346 22.1176 17.4404 22.8771 18.1774 23.4991C18.9144 24.1212 19.768 24.5935 20.6895 24.8891C21.0883 25.0161 21.4971 25.1098 21.9117 25.1691C22.8986 25.2822 23.8401 25.642 24.6476 26.2146C25.4551 26.7872 26.1019 27.5537 26.5271 28.442C26.9523 29.3302 27.142 30.3109 27.0782 31.2917C27.0144 32.2725 26.6992 33.2211 26.1623 34.0481C25.469 35.1399 24.427 35.9715 23.2017 36.4112C21.9764 36.8508 20.6379 36.8733 19.3982 36.475C19.1514 36.3945 18.91 36.2984 18.6757 36.1874C18.5322 36.1316 18.3887 36.0784 18.2414 36.0302C17.32 35.7344 16.3487 35.6211 15.383 35.6967C14.4173 35.7723 13.4761 36.0353 12.6132 36.4708C11.7502 36.9062 10.9824 37.5055 10.3536 38.2345C9.72484 38.9634 9.24733 39.8078 8.94838 40.7193C8.87066 40.9584 8.80533 41.1988 8.75238 41.4405C8.72676 41.538 8.69985 41.6356 8.66783 41.7332C8.46985 42.3352 8.14263 42.8878 7.70861 43.353C7.27459 43.8182 6.74402 44.1851 6.15327 44.4285C5.56252 44.6719 4.92555 44.786 4.28603 44.7631C3.64652 44.7402 3.01957 44.5808 2.44815 44.2958C1.49155 43.8293 0.738867 43.0349 0.330218 42.0604C-0.0784306 41.0859 -0.115202 39.9976 0.226748 38.9983C0.988995 36.7032 3.40256 35.7843 5.81357 36.1937C8.47182 36.6449 10.5895 35.8452 12.1985 34.6729C15.4012 32.3309 16.7502 28.2678 15.8419 24.4303C15.3039 22.1516 14.0766 19.7868 11.3837 18.7906Z" fill="white"/>
    <path d="M34.1141 8.48101C36.4814 8.48101 38.4006 6.58247 38.4006 4.2405C38.4006 1.89854 36.4814 0 34.1141 0C31.7467 0 29.8275 1.89854 29.8275 4.2405C29.8275 6.58247 31.7467 8.48101 34.1141 8.48101Z" fill="white"/>
    <path d="M43.3635 7.40123C43.3692 7.15227 43.3568 6.90323 43.3264 6.65603C43.3187 6.55591 43.3148 6.45453 43.3148 6.35314C43.3148 5.48512 43.575 4.63659 44.0625 3.91486C44.55 3.19313 45.2428 2.63061 46.0535 2.29843C46.8641 1.96626 47.7561 1.87934 48.6167 2.04869C49.4773 2.21803 50.2678 2.63602 50.8882 3.2498C51.5087 3.86358 51.9312 4.64559 52.1024 5.49693C52.2736 6.34827 52.1857 7.23071 51.8499 8.03265C51.5141 8.8346 50.9455 9.52003 50.216 10.0023C49.4864 10.4845 48.6287 10.7419 47.7512 10.7419C45.7954 10.7419 43.9197 11.5104 42.5366 12.8784C41.1535 14.2464 40.3764 16.1019 40.376 18.0367C40.3767 18.4517 40.4127 18.8659 40.4836 19.2749C40.6395 20.0695 40.6258 20.8876 40.4436 21.6767C40.2614 22.4658 39.9146 23.2085 39.4255 23.8574C38.9364 24.5063 38.3156 25.0469 37.6031 25.4448C36.8905 25.8426 36.1018 26.0888 35.2875 26.1677C34.4731 26.2466 33.6511 26.1564 32.8741 25.9028C32.0971 25.6493 31.3821 25.238 30.775 24.6953C30.168 24.1526 29.6821 23.4905 29.3487 22.7513C29.0152 22.0122 28.8415 21.2122 28.8385 20.4028C28.8389 20.1455 28.8569 19.8885 28.8923 19.6335C28.9013 19.4827 28.9077 19.3307 28.9077 19.176C28.9074 18.1552 28.6905 17.1458 28.2712 16.2131C27.8518 15.2803 27.2393 14.445 26.4732 13.7611C25.7072 13.0772 24.8045 12.5599 23.8237 12.2426C22.8429 11.9254 21.8058 11.8152 20.7792 11.9193C20.678 11.9193 20.5768 11.9307 20.473 11.9307C19.8905 11.9298 19.3137 11.8153 18.7758 11.5939C18.238 11.3725 17.7494 11.0485 17.3381 10.6403C16.9268 10.2321 16.6008 9.7478 16.3787 9.21497C16.1566 8.68215 16.0428 8.11127 16.0437 7.53493C16.0446 6.95859 16.1603 6.38807 16.3841 5.85595C16.6079 5.32382 16.9355 4.84052 17.3481 4.43363C17.7607 4.02674 18.2503 3.70424 18.7889 3.48453C19.3275 3.26482 19.9045 3.1522 20.4871 3.15312C22.9302 3.15945 24.5584 5.14664 24.9095 7.5419C25.2938 10.1818 26.7209 11.9269 28.3479 13.0776C31.5903 15.369 35.9127 15.3804 39.3217 13.34C41.3445 12.1284 43.2392 10.2426 43.3635 7.40123Z" fill="white"/>
    <path d="M107.847 22.4446C107.88 23.4228 107.645 24.3916 107.165 25.2479C106.699 26.015 106.036 26.6468 105.244 27.0792C104.321 27.5765 103.32 27.9154 102.283 28.0817C101.031 28.2943 99.7619 28.3969 98.4912 28.3884H83.3987V6.23534H98.7718C99.918 6.22248 101.062 6.33812 102.182 6.58006C103.082 6.76878 103.943 7.10778 104.728 7.58252C105.399 7.98132 105.95 8.54945 106.326 9.22868C106.702 9.90791 106.889 10.6738 106.867 11.4479V12.1361C106.867 13.4338 106.469 14.4477 105.674 15.1777C104.879 15.9076 103.673 16.3787 102.055 16.5907C102.851 16.6677 103.633 16.8497 104.38 17.1319C105.049 17.3804 105.67 17.7395 106.216 18.1939C106.737 18.626 107.153 19.1677 107.435 19.7795C107.717 20.3913 107.857 21.0576 107.844 21.7298L107.847 22.4446ZM100.268 12.2666C100.268 12.0232 100.22 11.7821 100.127 11.5569C100.025 11.3153 99.8648 11.1018 99.6609 10.9346C99.4059 10.7291 99.1112 10.5773 98.7948 10.4885C98.3597 10.3657 97.9084 10.3085 97.4561 10.3187H89.9208V14.8152H97.1896C98.264 14.8152 99.0459 14.6196 99.5353 14.2284C99.7708 14.047 99.9598 13.8133 100.087 13.5463C100.214 13.2792 100.276 12.9863 100.268 12.6911V12.2666ZM101.244 21.1544C101.236 20.7913 101.129 20.437 100.934 20.1291C100.735 19.8363 100.466 19.5972 100.15 19.4334C99.7697 19.2385 99.3601 19.105 98.937 19.038C98.4186 18.9508 97.8935 18.9084 97.3677 18.9112H89.9208V23.9337H97.4548C97.937 23.9349 98.4189 23.9057 98.8973 23.8462C99.3196 23.7979 99.7316 23.6842 100.118 23.5091C100.461 23.354 100.751 23.1051 100.955 22.7918C101.172 22.4189 101.272 21.9906 101.243 21.5612L101.244 21.1544Z" fill="white"/>
    <path d="M111.813 28.3887V6.23438H118.347V14.9612H130.588V6.23438H137.13V28.3887H130.588V19.644H118.342V28.3887H111.813Z" fill="white"/>
    <path d="M139.863 28.3887L150.136 6.23438H158.529L168.801 28.3887H162.081L160.159 23.8199H148.509L146.587 28.3887H139.863ZM150.328 19.4704H158.342L154.686 10.7575H154.006L150.328 19.4704Z" fill="white"/>
    <path d="M182.641 16.3083H195.503L195.444 18.7542C195.444 18.8607 195.444 18.9545 195.436 19.0318C195.428 19.1091 195.423 19.2029 195.414 19.3106C195.308 20.5512 194.96 21.7597 194.39 22.8693C193.786 24.0459 192.947 25.0893 191.925 25.9362C190.773 26.8805 189.456 27.6077 188.039 28.0818C186.337 28.6459 184.55 28.9181 182.755 28.8866C180.717 28.919 178.686 28.6629 176.722 28.1262C175.16 27.7043 173.699 26.9802 172.421 25.9958C171.307 25.1137 170.427 23.975 169.859 22.6792C169.277 21.3165 168.987 19.8494 169.006 18.3702V16.2487C168.985 14.755 169.28 13.2734 169.872 11.8992C170.45 10.6016 171.339 9.46313 172.462 8.5826C173.741 7.60611 175.203 6.8898 176.763 6.47502C178.721 5.95063 180.744 5.70148 182.773 5.7349C184.414 5.7156 186.05 5.90773 187.641 6.30647C188.984 6.64112 190.259 7.20324 191.408 7.96794C192.453 8.67679 193.342 9.58776 194.021 10.6458C194.721 11.756 195.208 12.9849 195.457 14.2704H189.136C189.006 13.6428 188.753 13.0467 188.389 12.5165C188.026 11.9862 187.561 11.5322 187.019 11.1806C185.925 10.4667 184.499 10.1102 182.742 10.111C181.786 10.1038 180.835 10.2297 179.915 10.4849C179.081 10.7101 178.299 11.0899 177.609 11.6039C176.951 12.103 176.422 12.7476 176.062 13.4859C175.67 14.3183 175.477 15.2292 175.5 16.1473V18.5033C175.479 19.4083 175.672 20.3056 176.062 21.1242C176.423 21.8589 176.949 22.5026 177.6 23.0061C178.284 23.5246 179.063 23.9072 179.894 24.1328C180.814 24.3895 181.766 24.5174 182.721 24.513C183.71 24.5298 184.696 24.4138 185.653 24.1683C186.392 23.9795 187.093 23.6652 187.724 23.2393C188.246 22.8792 188.683 22.4119 189.005 21.8693C189.309 21.3545 189.505 20.7849 189.583 20.1939H182.627L182.641 16.3083Z" fill="white"/>
    <path d="M212.08 20.6425V28.3885H205.546V20.6425L194.776 6.23291H202.193L208.824 15.8989L215.425 6.23291H222.841L212.08 20.6425Z" fill="white"/>
    <path d="M88.8818 35.7906C88.8421 36.055 88.7554 36.3103 88.6256 36.5447C88.4913 36.7868 88.3081 36.999 88.0875 37.1682C87.8335 37.3576 87.5471 37.5001 87.242 37.589C86.862 37.6995 86.4671 37.7521 86.0711 37.7448C85.6215 37.7539 85.1731 37.6953 84.7413 37.5712C84.3995 37.4734 84.0813 37.3078 83.8061 37.0846C83.5653 36.884 83.3764 36.6294 83.2553 36.3419C83.1322 36.0431 83.0708 35.7229 83.0746 35.4003V34.9618C83.0708 34.6395 83.1322 34.3198 83.2553 34.0214C83.3761 33.7334 83.565 33.4783 83.8061 33.2775C84.0814 33.0538 84.4001 32.8881 84.7426 32.7908C85.1754 32.667 85.6245 32.608 86.0749 32.6159C86.4588 32.6111 86.8413 32.6602 87.2112 32.7617C87.5146 32.8452 87.7999 32.9831 88.0529 33.1685C88.2786 33.3359 88.4663 33.5484 88.6038 33.792C88.7419 34.038 88.8335 34.3069 88.8741 34.5854H87.7032C87.6686 34.419 87.604 34.2601 87.5123 34.1165C87.4225 33.977 87.3059 33.8564 87.169 33.7616C87.0209 33.66 86.8562 33.5846 86.6822 33.5386C86.4811 33.484 86.2732 33.4575 86.0647 33.46C85.8181 33.4567 85.5724 33.49 85.3357 33.5588C85.1301 33.6181 84.9379 33.7157 84.7695 33.8465C84.6118 33.9716 84.4862 34.1319 84.4031 34.3142C84.3145 34.5137 84.2708 34.7299 84.275 34.9478V35.4332C84.2689 35.6513 84.3127 35.8679 84.4031 36.0669C84.4887 36.2466 84.6149 36.4045 84.7721 36.5282C84.9391 36.6592 85.1306 36.7561 85.3357 36.8134C85.5703 36.8793 85.8131 36.9121 86.057 36.9109C86.2735 36.9142 86.4893 36.886 86.6975 36.8273C86.8707 36.7778 87.0341 36.6994 87.1805 36.5954C87.3139 36.499 87.4278 36.3786 87.5161 36.2405C87.603 36.1028 87.667 35.9522 87.7057 35.7944L88.8818 35.7906Z" fill="white"/>
    <path d="M89.8234 37.6398V32.7188H91.0071V34.7465H94.0689V32.7188H95.2565V37.6398H94.0689V35.6121H91.0071V37.6398H89.8234Z" fill="white"/>
    <path d="M96.6208 37.6398V32.7188H101.233V33.559H97.793V34.7338H100.891V35.5703H97.793V36.8059H101.252V37.6398H96.6208Z" fill="white"/>
    <path d="M103.404 33.6528H103.335L103.368 33.9823L103.421 37.6423H102.305V32.7188H103.923L105.578 35.6767L105.66 35.9467H105.69L105.775 35.6704L107.427 32.7188H109.045V37.6398H107.933L107.985 33.9823L108.015 33.6502H107.942L106.252 36.901H105.099L103.404 33.6528Z" fill="white"/>
    <path d="M110.417 37.6398V32.7188H111.601V37.6398H110.417Z" fill="white"/>
    <path d="M118.38 35.7906C118.34 36.0548 118.253 36.31 118.124 36.5447C117.99 36.7873 117.807 36.9997 117.586 37.1682C117.333 37.3577 117.047 37.5002 116.743 37.589C116.363 37.6995 115.968 37.7521 115.572 37.7448C115.122 37.7539 114.674 37.6953 114.242 37.5712C113.9 37.4734 113.582 37.3078 113.307 37.0846C113.066 36.884 112.877 36.6294 112.756 36.3419C112.633 36.0431 112.572 35.7229 112.575 35.4003V34.9618C112.572 34.6395 112.633 34.3198 112.756 34.0214C112.877 33.7334 113.066 33.4783 113.307 33.2775C113.582 33.0538 113.901 32.8881 114.243 32.7908C114.676 32.667 115.125 32.608 115.576 32.6159C115.96 32.6111 116.342 32.6602 116.712 32.7617C117.015 32.8452 117.301 32.9831 117.554 33.1685C117.779 33.3359 117.967 33.5484 118.105 33.792C118.242 34.0382 118.333 34.307 118.372 34.5854H117.207C117.172 34.419 117.107 34.2601 117.016 34.1165C116.925 33.9776 116.809 33.8571 116.672 33.7616C116.524 33.66 116.359 33.5846 116.184 33.5386C115.984 33.4839 115.776 33.4574 115.568 33.46C115.321 33.4566 115.075 33.4899 114.838 33.5588C114.633 33.6183 114.441 33.716 114.273 33.8465C114.115 33.9721 113.989 34.1322 113.905 34.3142C113.816 34.5135 113.772 34.7299 113.777 34.9478V35.4332C113.771 35.6513 113.815 35.8679 113.905 36.0669C113.991 36.2449 114.117 36.4014 114.273 36.5244C114.441 36.6551 114.632 36.752 114.838 36.8096C115.072 36.8756 115.315 36.9084 115.559 36.9071C115.773 36.9098 115.986 36.8816 116.192 36.8235C116.366 36.774 116.529 36.6956 116.676 36.5916C116.81 36.4952 116.923 36.3748 117.012 36.2367C117.099 36.0992 117.163 35.9485 117.2 35.7906H118.38Z" fill="white"/>
    <path d="M118.636 37.6399L120.978 32.7163H122.515L124.856 37.6399H123.633L123.12 36.4879H120.366L119.853 37.6399H118.636ZM120.724 35.6844H122.767L121.831 33.5528H121.674L120.724 35.6844Z" fill="white"/>
    <path d="M125.531 37.6399V32.7227H126.719V36.8085H129.793V37.6399H125.531Z" fill="white"/>
    <path d="M135.349 36.2456C135.357 36.4726 135.302 36.6974 135.189 36.8951C135.076 37.0929 134.91 37.2558 134.709 37.366C134.463 37.5029 134.197 37.5988 133.92 37.6498C133.563 37.717 133.2 37.7488 132.837 37.7449C132.46 37.7515 132.084 37.7089 131.719 37.6182C131.43 37.546 131.156 37.4251 130.909 37.2608C130.704 37.1247 130.534 36.9422 130.415 36.7285C130.305 36.5276 130.248 36.3028 130.249 36.0745H131.378C131.379 36.1768 131.4 36.2779 131.439 36.3724C131.49 36.4842 131.569 36.5811 131.669 36.6537C131.803 36.7503 131.955 36.8209 132.116 36.8616C132.352 36.9214 132.596 36.9487 132.84 36.9427C133.042 36.9465 133.245 36.9299 133.444 36.8932C133.587 36.8682 133.724 36.8207 133.852 36.7526C133.946 36.7046 134.026 36.6324 134.082 36.5435C134.129 36.4645 134.153 36.3749 134.153 36.2837C134.156 36.2016 134.136 36.1202 134.096 36.0484C134.055 35.9766 133.996 35.9173 133.924 35.8768C133.713 35.7669 133.484 35.6952 133.247 35.6652L131.906 35.4282C131.484 35.38 131.084 35.2144 130.753 34.9504C130.631 34.8344 130.535 34.6939 130.472 34.5383C130.409 34.3826 130.38 34.2155 130.388 34.0481C130.387 33.9276 130.405 33.8076 130.439 33.692C130.474 33.5711 130.529 33.457 130.603 33.3548C130.685 33.2409 130.786 33.1407 130.9 33.0583C131.038 32.9595 131.189 32.8806 131.349 32.8238C131.549 32.7527 131.756 32.701 131.966 32.6692C132.233 32.6287 132.502 32.6096 132.772 32.6122C133.143 32.6074 133.514 32.6499 133.875 32.7389C134.15 32.8043 134.41 32.9186 134.643 33.076C134.834 33.2067 134.99 33.3805 135.098 33.583C135.201 33.7801 135.262 33.9956 135.279 34.2166H134.223C134.206 34.106 134.171 33.9989 134.118 33.8998C134.061 33.7965 133.978 33.7093 133.877 33.6463C133.746 33.5656 133.601 33.5081 133.449 33.4765C133.232 33.4312 133.01 33.4104 132.787 33.4144C132.589 33.4102 132.392 33.4302 132.199 33.474C132.069 33.5026 131.945 33.5536 131.833 33.6248C131.753 33.6751 131.688 33.745 131.644 33.8276C131.612 33.8963 131.594 33.9714 131.594 34.0474C131.594 34.1235 131.612 34.1986 131.644 34.2673C131.679 34.3362 131.731 34.395 131.796 34.4384C131.877 34.4944 131.967 34.5371 132.062 34.5651C132.188 34.6031 132.316 34.6319 132.446 34.6513L133.674 34.8566C133.926 34.8979 134.174 34.9611 134.415 35.0455C134.604 35.1102 134.78 35.2053 134.937 35.3268C135.069 35.4322 135.175 35.5667 135.246 35.7197C135.316 35.8861 135.352 36.0651 135.349 36.2456Z" fill="white"/>
    <path d="M139.227 37.6398V32.7188H143.839V33.559H140.402V34.7338H143.501V35.5703H140.402V36.8059H143.861V37.6398H139.227Z" fill="white"/>
    <path d="M145.756 32.7188L147.21 34.5261L148.647 32.7188H150.015L147.985 35.1268L150.189 37.6399H148.82L147.197 35.7528L145.583 37.6399H144.214L146.424 35.1306L144.386 32.7163L145.756 32.7188Z" fill="white"/>
    <path d="M156.006 34.4713C156.01 34.7088 155.963 34.9445 155.87 35.1632C155.782 35.3621 155.646 35.5363 155.474 35.6702C155.283 35.8141 155.065 35.9192 154.833 35.9794C154.546 36.053 154.25 36.0884 153.953 36.0846H152.048V37.6396H150.871V32.7185H153.946C154.24 32.7147 154.533 32.7488 154.818 32.8199C155.051 32.8765 155.271 32.9758 155.468 33.1127C155.639 33.2345 155.778 33.3959 155.872 33.5829C155.969 33.7803 156.016 33.9974 156.012 34.2165L156.006 34.4713ZM154.804 34.2951C154.807 34.1875 154.788 34.0803 154.75 33.9795C154.714 33.8894 154.655 33.8105 154.577 33.7514C154.486 33.6831 154.381 33.6347 154.27 33.6095C154.118 33.574 153.963 33.5574 153.807 33.5601H152.046V35.2469H153.753C154.037 35.2706 154.32 35.1992 154.558 35.0441C154.642 34.9703 154.709 34.8784 154.752 34.7754C154.795 34.6724 154.814 34.561 154.806 34.4497L154.804 34.2951Z" fill="white"/>
    <path d="M156.508 34.9643C156.505 34.642 156.567 34.3224 156.69 34.0239C156.81 33.736 156.999 33.4811 157.241 33.2812C157.516 33.0579 157.833 32.8916 158.174 32.792C159.048 32.5569 159.968 32.5569 160.842 32.792C161.183 32.8919 161.501 33.0592 161.776 33.2838C162.016 33.4844 162.205 33.739 162.326 34.0264C162.449 34.324 162.511 34.6428 162.508 34.9643V35.4002C162.511 35.7204 162.449 36.038 162.326 36.3343C162.205 36.622 162.016 36.8767 161.774 37.0769C161.499 37.301 161.181 37.4682 160.839 37.5686C159.967 37.8037 159.047 37.8037 158.174 37.5686C157.833 37.4701 157.515 37.3041 157.241 37.0807C157 36.8807 156.811 36.6264 156.69 36.3393C156.567 36.0404 156.505 35.7204 156.508 35.3977V34.9643ZM159.504 36.9046C159.752 36.9071 160 36.8742 160.238 36.807C160.446 36.7485 160.639 36.6513 160.81 36.5206C160.968 36.3965 161.094 36.2377 161.179 36.0567C161.269 35.8576 161.312 35.6411 161.307 35.423V34.9453C161.312 34.7244 161.268 34.5051 161.179 34.3027C161.094 34.1206 160.968 33.9605 160.81 33.8351C160.64 33.7046 160.446 33.6082 160.238 33.5512C159.759 33.4211 159.252 33.4211 158.773 33.5512C158.567 33.6096 158.374 33.7069 158.205 33.8376C158.048 33.9629 157.922 34.1225 157.838 34.304C157.748 34.5055 157.704 34.7239 157.709 34.944V35.4218C157.703 35.6399 157.747 35.8566 157.838 36.0554C157.923 36.2358 158.048 36.3945 158.205 36.5193C158.374 36.6505 158.567 36.7478 158.774 36.8057C159.01 36.8742 159.256 36.9071 159.502 36.9033L159.504 36.9046Z" fill="white"/>
    <path d="M168.629 34.3686C168.632 34.5199 168.606 34.6704 168.553 34.8122C168.503 34.9367 168.431 35.0513 168.34 35.1506C168.247 35.2521 168.138 35.3377 168.017 35.404C167.889 35.4753 167.753 35.5343 167.614 35.5802C167.696 35.6137 167.774 35.6562 167.847 35.7069C167.911 35.7528 167.969 35.8069 168.02 35.8679C168.07 35.9327 168.113 36.0028 168.148 36.077C168.188 36.1625 168.222 36.2506 168.25 36.3406L168.44 36.9362C168.48 37.0704 168.53 37.2017 168.588 37.3291C168.638 37.4411 168.702 37.5463 168.779 37.6421H167.521C167.459 37.5651 167.407 37.4798 167.369 37.3887C167.317 37.2777 167.274 37.1628 167.241 37.0452L167.033 36.3913C167.012 36.3049 166.972 36.2238 166.918 36.1528C166.864 36.0818 166.796 36.0224 166.718 35.9781C166.529 35.8846 166.321 35.8348 166.11 35.8324H164.659V37.6396H163.482V32.7186H166.669C166.95 32.7148 167.229 32.7476 167.501 32.8161C167.724 32.8719 167.934 32.971 168.118 33.1076C168.283 33.2338 168.415 33.3978 168.503 33.5854C168.593 33.7916 168.637 34.0147 168.631 34.2394L168.629 34.3686ZM167.428 34.2229C167.429 34.1283 167.415 34.0341 167.385 33.9441C167.358 33.8596 167.31 33.783 167.246 33.721C167.173 33.6534 167.085 33.6027 166.99 33.5727C166.865 33.5345 166.735 33.5166 166.605 33.5195H164.668V34.9972H166.385C166.653 35.0117 166.92 34.9502 167.154 34.8198C167.243 34.7625 167.316 34.6826 167.364 34.5884C167.412 34.4942 167.434 34.3891 167.428 34.2837V34.2229Z" fill="white"/>
    <path d="M172.346 33.5587V37.6395H171.162V33.5587H169.093V32.7197H174.411V33.5587H172.346Z" fill="white"/>
    <path d="M183.461 35.7906C183.421 36.055 183.334 36.3103 183.204 36.5447C183.071 36.787 182.888 36.9993 182.668 37.1682C182.414 37.3574 182.128 37.5 181.823 37.589C181.443 37.6995 181.048 37.7521 180.652 37.7448C180.202 37.7538 179.754 37.6952 179.321 37.5712C178.98 37.4734 178.662 37.3078 178.387 37.0846C178.147 36.884 177.958 36.6293 177.837 36.3419C177.714 36.0431 177.652 35.7229 177.656 35.4003V34.9618C177.652 34.6395 177.714 34.3198 177.837 34.0214C177.957 33.7332 178.146 33.478 178.387 33.2775C178.662 33.0537 178.981 32.8881 179.323 32.7908C179.755 32.667 180.205 32.6081 180.655 32.6159C181.039 32.611 181.422 32.6601 181.793 32.7617C182.096 32.8457 182.381 32.9836 182.634 33.1685C182.859 33.3366 183.047 33.5489 183.185 33.792C183.323 34.0381 183.414 34.3069 183.454 34.5854H182.283C182.249 34.4192 182.184 34.2604 182.094 34.1165C182.003 33.9772 181.886 33.8567 181.749 33.7616C181.601 33.66 181.437 33.5846 181.263 33.5386C181.062 33.484 180.855 33.4575 180.646 33.46C180.399 33.4566 180.153 33.4899 179.916 33.5588C179.71 33.6186 179.518 33.7162 179.35 33.8465C179.193 33.9724 179.067 34.1325 178.983 34.3142C178.894 34.5135 178.85 34.7299 178.855 34.9478V35.4332C178.85 35.6512 178.893 35.8677 178.983 36.0669C179.069 36.2461 179.195 36.4038 179.351 36.5282C179.518 36.6589 179.71 36.7558 179.916 36.8133C180.15 36.8794 180.393 36.9122 180.637 36.9109C180.851 36.9136 181.064 36.8854 181.27 36.8273C181.443 36.7778 181.606 36.6994 181.753 36.5954C181.886 36.499 182 36.3786 182.089 36.2405C182.175 36.1028 182.239 35.9522 182.278 35.7944L183.461 35.7906Z" fill="white"/>
    <path d="M184.013 34.9643C184.01 34.642 184.072 34.3224 184.195 34.0239C184.315 33.736 184.504 33.4811 184.745 33.2812C185.021 33.0579 185.338 32.8916 185.679 32.792C186.553 32.5569 187.473 32.5569 188.347 32.792C188.688 32.8919 189.006 33.0592 189.281 33.2838C189.521 33.4844 189.71 33.739 189.831 34.0264C189.954 34.324 190.016 34.6429 190.012 34.9643V35.4002C190.016 35.7204 189.954 36.038 189.831 36.3343C189.71 36.6218 189.52 36.8764 189.279 37.0769C189.004 37.301 188.686 37.4682 188.344 37.5686C187.472 37.8037 186.552 37.8037 185.679 37.5686C185.338 37.4701 185.02 37.3041 184.745 37.0807C184.504 36.881 184.315 36.6267 184.195 36.3393C184.071 36.0407 184.009 35.7205 184.013 35.3977V34.9643ZM187.009 36.9046C187.257 36.9071 187.505 36.8742 187.743 36.807C187.95 36.7488 188.144 36.6516 188.313 36.5206C188.471 36.3962 188.598 36.2375 188.684 36.0567C188.774 35.8578 188.818 35.6411 188.812 35.423V34.9453C188.818 34.7243 188.774 34.5049 188.684 34.3027C188.6 34.1221 188.475 33.963 188.32 33.8376C188.15 33.7069 187.957 33.6105 187.75 33.5537C187.27 33.4236 186.764 33.4236 186.284 33.5537C186.078 33.6122 185.885 33.7094 185.717 33.8401C185.559 33.9655 185.433 34.1251 185.349 34.3065C185.259 34.5078 185.215 34.7264 185.221 34.9465V35.4243C185.216 35.6423 185.259 35.8587 185.349 36.058C185.434 36.2387 185.56 36.3974 185.718 36.5218C185.886 36.653 186.079 36.7503 186.285 36.8082C186.522 36.8755 186.767 36.9084 187.013 36.9058L187.009 36.9046Z" fill="white"/>
    <path d="M192.091 33.6528H192.022L192.054 33.9823L192.107 37.6423H190.992V32.7188H192.61L194.264 35.6767L194.346 35.9467H194.379L194.465 35.6704L196.115 32.7188H197.734V37.6398H196.622L196.675 33.9823L196.704 33.6502H196.631L194.942 36.901H193.789L192.091 33.6528Z" fill="white"/>
    <path d="M204.245 34.4713C204.251 34.7082 204.207 34.9438 204.117 35.1632C204.029 35.3622 203.892 35.5364 203.72 35.6702C203.529 35.814 203.311 35.919 203.079 35.9794C202.791 36.053 202.494 36.0884 202.196 36.0846H200.293V37.6396H199.115V32.7185H202.19C202.484 32.7148 202.777 32.7489 203.062 32.8199C203.296 32.8761 203.516 32.9755 203.712 33.1127C203.884 33.2344 204.023 33.3958 204.117 33.5829C204.212 33.7805 204.26 33.9975 204.256 34.2165L204.245 34.4713ZM203.044 34.2951C203.046 34.1874 203.027 34.0804 202.989 33.9795C202.954 33.8897 202.895 33.811 202.818 33.7514C202.726 33.6833 202.621 33.6349 202.509 33.6095C202.358 33.574 202.202 33.5574 202.047 33.56H200.284V35.2469H201.991C202.275 35.2712 202.559 35.1997 202.796 35.0441C202.88 34.9703 202.947 34.8784 202.99 34.7754C203.033 34.6724 203.052 34.561 203.044 34.4497V34.2951Z" fill="white"/>
    <path d="M203.922 37.6399L206.264 32.7163H207.801L210.143 37.6399H208.918L208.406 36.4879H205.653L205.14 37.6399H203.922ZM206.012 35.6844H208.048L207.107 33.5502H206.949L206.012 35.6844Z" fill="white"/>
    <path d="M215.057 37.6398L211.931 34.0913H211.902L211.939 34.4043L211.954 37.6347H210.827V32.7188H211.998L215.152 36.3281H215.178L215.148 36.048L215.132 32.72H216.26V37.6398H215.057Z" fill="white"/>
    <path d="M220.419 35.9086V37.6398H219.234V35.9086L216.807 32.7188H218.16L219.825 35.0367L221.491 32.7188H222.842L220.419 35.9086Z" fill="white"/>
    <path d="M83.0797 44.6455H223" stroke="white" stroke-width="3" stroke-miterlimit="10"/>
    <path d="M153.274 59.0008C152.611 60.2554 151.897 60.9474 150.594 60.9474C148.62 60.9474 147.202 59.4177 147.202 57.1251C147.202 55.3116 148.345 53.6007 150.487 53.6007C151.855 53.6007 152.695 54.133 153.04 55.4789L153.424 55.3965C153.349 54.707 153.256 54.1836 153.155 53.4955C152.392 53.2947 151.61 53.1778 150.821 53.147C147.907 53.147 145.815 54.8262 145.815 57.3862C145.815 59.3049 147.26 61.4239 150.501 61.4239C151.315 61.3906 152.123 61.2734 152.912 61.0741C153.209 60.4529 153.453 59.8081 153.642 59.1465L153.274 59.0008ZM163.295 53.3244H159.892V53.6906C160.892 53.773 160.993 53.8402 160.993 54.8617V56.7766H156.683V54.8642C156.683 53.8339 156.784 53.7756 157.759 53.6932V53.3269H154.371V53.6932C155.412 53.7756 155.505 53.8339 155.505 54.8642V59.7004C155.505 60.732 155.412 60.7979 154.404 60.8802V61.23H157.83V60.8802C156.788 60.7979 156.687 60.7231 156.687 59.7004V57.3241H160.997V59.7004C160.997 60.732 160.895 60.7979 159.812 60.8802V61.23H163.299V60.8802C162.265 60.7979 162.156 60.7307 162.156 59.7004V54.8642C162.156 53.8339 162.257 53.7756 163.299 53.6932L163.295 53.3244ZM170.341 59.2074C170.192 59.6293 169.975 60.025 169.7 60.3796C169.415 60.6952 169.038 60.7776 168.122 60.7776C167.551 60.7776 167.081 60.7776 166.841 60.6369C166.601 60.4962 166.539 60.2136 166.539 59.6395V57.4103H167.692C168.792 57.4103 168.884 57.4762 169.06 58.3671H169.444V55.9769H169.06C168.901 56.7994 168.816 56.8995 167.692 56.8995H166.539V54.1748C166.539 53.8085 166.564 53.7756 166.976 53.7756H167.908C168.774 53.7756 169.118 53.8592 169.303 54.1241C169.499 54.4506 169.638 54.8075 169.714 55.1798L170.099 55.1303C170.048 54.4498 169.998 53.6425 169.98 53.3269H164.285V53.6932C165.26 53.7756 165.368 53.8098 165.368 54.9238V59.6839C165.368 60.6813 165.258 60.7979 164.124 60.8802V61.23H170.288C170.397 60.841 170.641 59.7168 170.725 59.2606L170.341 59.2074ZM181.925 61.2275V60.8777C180.832 60.7776 180.8 60.6952 180.757 59.4165L180.64 55.029C180.597 53.8237 180.672 53.7819 181.773 53.6906V53.3269H179.572L176.684 59.2999L173.836 53.3257H171.692V53.6919C172.819 53.7996 172.894 53.8668 172.787 55.4459L172.602 57.8893C172.501 59.1934 172.424 59.7168 172.357 60.1401C172.257 60.6217 172.014 60.7966 171.291 60.8638V61.2288H174.238V60.8625C173.407 60.7801 173.112 60.6965 173.085 60.1224C173.057 59.455 173.065 58.7866 173.109 58.12L173.294 54.7058H173.327L176.156 61.1527H176.412L179.487 54.5398H179.537L179.579 59.4165C179.596 60.6965 179.547 60.7789 178.53 60.879V61.2275H181.925ZM186.192 61.2275V60.8777C185.175 60.8029 185.066 60.7282 185.066 59.6813V54.8883C185.066 53.8339 185.176 53.7578 186.192 53.6919V53.3257H182.764V53.6919C183.789 53.7566 183.897 53.8326 183.897 54.8883V59.6826C183.897 60.7294 183.789 60.8042 182.764 60.879V61.2288L186.192 61.2275ZM194.541 58.9995C193.877 60.2542 193.163 60.9436 191.861 60.9436C189.886 60.9436 188.468 59.4152 188.468 57.1213C188.468 55.309 189.61 53.5981 191.752 53.5981C193.121 53.5981 193.96 54.1304 194.305 55.4763L194.689 55.3927C194.614 54.7032 194.52 54.1798 194.42 53.4917C193.657 53.2905 192.874 53.1732 192.085 53.1419C189.17 53.1419 187.078 54.8211 187.078 57.3811C187.078 59.3011 188.523 61.4201 191.766 61.4201C192.58 61.3867 193.387 61.2699 194.177 61.0716C194.474 60.4499 194.718 59.8047 194.907 59.1427L194.541 58.9995ZM203.772 61.2275V60.8777C202.957 60.7953 202.781 60.6623 202.377 59.5901C201.546 57.4559 200.739 55.2926 199.934 53.1419L199.497 53.2496L196.859 59.5863C196.414 60.6673 196.238 60.7497 195.422 60.8739V61.2237H198.194V60.8739C197.244 60.7738 197.145 60.6331 197.413 59.8943C197.573 59.4114 197.741 58.9387 197.951 58.3811H200.641C200.91 59.0794 201.137 59.6864 201.312 60.168C201.488 60.6496 201.371 60.7662 200.591 60.8739V61.2237L203.772 61.2275ZM200.462 57.8361H198.156C198.54 56.8552 198.925 55.8172 199.332 54.8122H199.356L200.462 57.8361ZM210.326 59.1909C210.189 59.6388 209.957 60.0527 209.646 60.405C209.362 60.7206 208.916 60.7941 208.252 60.7941C207.856 60.8255 207.458 60.7714 207.085 60.6356C206.848 60.5089 206.789 60.2795 206.789 59.6129V54.8883C206.789 53.8237 206.907 53.7578 207.899 53.6919V53.3257H204.496V53.6919C205.538 53.7566 205.621 53.8326 205.621 54.8883V59.6585C205.621 60.7218 205.512 60.7991 204.437 60.879V61.2288H210.226C210.354 60.8549 210.611 59.6826 210.696 59.2669L210.326 59.1909ZM216.064 55.1608C215.954 54.3636 215.896 53.8643 215.845 53.4334C215.321 53.2526 214.771 53.1539 214.216 53.1406C212.577 53.1406 211.587 54.1469 211.587 55.3597C211.587 56.6968 212.787 57.3038 213.661 57.736C214.618 58.234 215.29 58.6497 215.29 59.5305C215.32 59.8801 215.208 60.2269 214.979 60.4947C214.75 60.7625 214.423 60.9295 214.07 60.9588C213.993 60.9664 213.916 60.9664 213.84 60.9588C212.559 60.9588 211.942 59.6915 211.732 58.9159L211.347 59.0236C211.428 59.6746 211.543 60.321 211.692 60.9601C211.892 61.0614 212.099 61.1462 212.313 61.2136C212.719 61.3492 213.144 61.4164 213.572 61.4125C215.287 61.4125 216.411 60.3746 216.411 59.0705C216.411 57.7322 215.303 57.1593 214.234 56.6435C213.209 56.1531 212.63 55.7374 212.63 54.8819C212.618 54.5425 212.743 54.2123 212.977 53.964C213.211 53.7157 213.536 53.5695 213.879 53.5576C213.925 53.5576 213.97 53.5576 214.016 53.5576C215.073 53.5576 215.46 54.4384 215.681 55.2203L216.064 55.1608Z" fill="white"/>
    <path d="M105.528 52.6656H105.585L105.819 52.3855C105.327 51.8342 104.626 51.2702 104.626 50.4249C104.626 49.8508 104.972 49.3173 105.883 49.3173C106.242 49.3224 106.592 49.4302 106.89 49.6278L106.957 49.5568C106.794 49.2057 106.657 48.9231 106.585 48.7964C106.25 48.5125 105.818 48.3644 105.377 48.382C105.192 48.3708 105.007 48.3959 104.832 48.4556C104.657 48.5154 104.495 48.6088 104.356 48.7304C104.218 48.852 104.105 48.9994 104.024 49.1643C103.943 49.3291 103.896 49.5082 103.885 49.6911C103.881 49.7511 103.881 49.8112 103.885 49.8711C103.885 50.9471 104.602 51.8114 105.528 52.6656Z" fill="white"/>
    <path d="M120.991 53.1017C119.465 50.1869 119.141 49.2212 117.632 49.2212C117.103 49.2143 116.575 49.2835 116.066 49.4265L116.478 50.5189L116.544 50.5658C117.011 50.4339 117.493 50.3644 117.978 50.3592C118.913 50.3592 119.187 50.7496 119.643 51.6583C119.889 52.1386 120.11 52.6202 120.327 53.1005H89.5364L89.4711 53.1879L89.8554 53.9623H91.8795C91.9597 54.4445 92.0004 54.9323 92.0012 55.421C92.009 55.8165 91.9602 56.2112 91.8565 56.5933C91.6141 56.5489 91.3687 56.5223 91.1224 56.5134C90.939 56.5131 90.7625 56.5823 90.6291 56.7067C90.4956 56.8312 90.4155 57.0015 90.405 57.1826C90.4792 57.6531 90.6615 58.1005 90.9379 58.4905C91.5336 59.4701 92.6033 60.5461 94.0407 61.6791H94.1137L94.6608 60.6424C93.5919 60.1073 92.62 59.4007 91.7847 58.5513C92.1578 58.296 92.4618 57.9539 92.6699 57.5552C93.3846 57.9193 94.1724 58.1206 94.9759 58.1445C95.3313 58.1454 95.6855 58.1055 96.0315 58.0253L95.9982 61.1088L96.9091 61.3483L96.9898 61.2609L96.9488 53.9597H105.532V55.5388H101.438L101.372 55.6352L101.741 56.4792C103.063 56.6389 103.386 57.2396 103.386 57.6426C103.376 58.0099 103.219 58.3583 102.951 58.612C102.682 58.8657 102.323 59.0042 101.951 58.9974C100.88 58.9974 99.8735 57.9696 98.955 55.7543L98.4297 56.0344V56.099C99.5507 58.8555 100.879 60.0759 102.386 60.0759C102.851 60.0854 103.302 59.9118 103.638 59.5932C103.974 59.2745 104.169 58.8369 104.179 58.3764V58.3396C104.137 57.6682 103.899 57.0233 103.494 56.483H105.524L105.492 61.1138L106.389 61.3521L106.47 61.2647L106.437 53.9635H109.639C109.915 54.2305 110.082 54.5889 110.107 54.9698C110.107 55.6466 109.293 55.9102 108.197 56.2688L108.124 56.3968C108.655 57.9823 109.72 59.3117 111.298 59.3117C111.899 59.3366 112.49 59.1578 112.974 58.8048L112.942 61.0999L113.851 61.3394L113.932 61.252L113.889 53.961H120.215V55.4818C119.642 55.4412 119.062 55.4336 118.434 55.4336C116.356 55.4336 115.68 56.1674 115.68 57.3549C115.68 58.5906 116.461 59.9378 118.007 61.3407H118.08L118.773 60.3598C117.314 59.484 116.501 58.55 116.501 57.7377C116.501 57.028 117.169 56.4222 118.967 56.4222C119.401 56.4222 119.819 56.4222 120.216 56.4462L120.183 61.1088L121.079 61.3483L121.16 61.2609L121.128 53.9597H122.586L122.651 53.8723L122.267 53.0979L120.991 53.1017ZM96.029 56.9291C95.471 57.0548 94.9011 57.1215 94.329 57.1281C93.8207 57.131 93.3159 57.0452 92.8378 56.8746C92.9072 56.5411 92.9403 56.2012 92.9364 55.8607C92.9346 55.227 92.8729 54.5948 92.7519 53.9724H96.0302L96.029 56.9291ZM112.974 56.7935C112.992 57.0199 112.95 57.247 112.852 57.4525C112.754 57.658 112.604 57.8349 112.417 57.9658C111.991 58.2506 111.488 58.4008 110.974 58.3967C110.591 58.4108 110.215 58.2958 109.906 58.0706C109.598 57.8455 109.376 57.5234 109.277 57.1572C109.277 57.0622 109.343 56.9975 109.494 56.9418C110.565 56.5527 111.002 56.1814 111.002 55.421C110.959 54.8902 110.766 54.382 110.445 53.9547H112.975L112.974 56.7935Z" fill="white"/>
    <path d="M141.723 53.8696L141.338 53.0952H125.946L125.881 53.1827L126.265 53.957H128.287C128.369 54.439 128.412 54.9269 128.415 55.4157C128.423 55.8113 128.374 56.2059 128.27 56.588C128.028 56.5437 127.782 56.517 127.536 56.5081C127.353 56.5079 127.176 56.577 127.043 56.7015C126.909 56.8259 126.829 56.9962 126.819 57.1773C126.893 57.6478 127.075 58.0953 127.352 58.4852C127.947 59.4648 129.017 60.5408 130.454 61.6725H130.527L131.074 60.6371C130.005 60.1039 129.031 59.399 128.194 58.5511C128.568 58.2961 128.872 57.954 129.08 57.555C129.794 57.92 130.582 58.1218 131.386 58.1455C131.741 58.1465 132.095 58.1065 132.441 58.0264L132.408 61.1098L133.319 61.3494L133.4 61.2619L133.359 53.9608H139.266V54.9658C139.268 54.9908 139.266 55.016 139.258 55.04C139.251 55.064 139.238 55.0863 139.222 55.1056C139.206 55.125 139.186 55.1409 139.164 55.1526C139.141 55.1643 139.117 55.1714 139.091 55.1736C139.077 55.1761 139.062 55.1761 139.048 55.1736H138.073C137.017 55.1736 136.268 55.2864 135.841 55.5412C135.625 55.6698 135.448 55.854 135.328 56.0742C135.209 56.2944 135.152 56.5425 135.164 56.792C135.164 57.3978 135.525 58.0036 136.181 58.5866C135.956 58.9254 135.838 59.3222 135.841 59.7272C135.841 61.5838 137.655 62.7485 140.581 63.481H140.638L141.233 62.5331C138.728 62.2796 136.81 61.6244 136.81 60.1175C136.81 58.835 138.502 58.1886 139.316 58.1886C139.977 58.1886 140.242 58.4358 140.242 58.7627C140.242 59.2887 139.541 59.7272 138.615 60.1251C138.854 60.423 139.115 60.7026 139.396 60.9616H139.453C140.379 60.5395 140.99 59.9971 140.99 59.2557C140.968 58.7123 140.735 58.1983 140.338 57.822C139.941 57.4457 139.412 57.2364 138.862 57.2381C137.997 57.2424 137.165 57.5634 136.525 58.1392C136.398 58.0329 136.297 57.8997 136.229 57.7494C136.161 57.5992 136.128 57.4357 136.132 57.2711C136.132 57.1302 136.163 56.9911 136.225 56.864C136.286 56.737 136.376 56.6253 136.487 56.5373C136.825 56.242 137.631 56.0836 138.665 56.0836C139.177 56.0836 139.631 56.0912 140.091 56.1077L140.187 55.9961L140.171 53.9684H141.654L141.723 53.8696ZM132.44 56.9213C131.882 57.0467 131.312 57.1138 130.74 57.1215C130.232 57.1239 129.728 57.0381 129.25 56.8681C129.318 56.5322 129.35 56.1903 129.346 55.8479C129.344 55.2141 129.282 54.5819 129.16 53.9595H132.44V56.9213Z" fill="white"/>
    <path d="M85.1692 51.1245C84.4236 51.4045 83.9829 51.715 83.9829 52.3221C83.9932 52.5614 84.0928 52.7884 84.2625 52.9593C84.4321 53.1301 84.6598 53.2327 84.9014 53.2472C84.9632 53.2598 85.0181 53.2944 85.0556 53.3444C85.0932 53.3944 85.1108 53.4564 85.1051 53.5185C85.1001 53.6769 85.0322 53.827 84.9162 53.9364C84.8002 54.0457 84.6453 54.1054 84.4851 54.1027C84.0987 54.084 83.7351 53.9165 83.4718 53.6362C83.2085 53.3558 83.0664 52.9847 83.0759 52.6022C83.0759 51.5769 84.0739 50.9077 84.9975 50.7012L85.1692 51.1245ZM87.8402 51.1245C87.078 51.4045 86.6386 51.715 86.6386 52.3221C86.6501 52.5638 86.7523 52.7925 86.9253 52.9636C87.0982 53.1347 87.3295 53.2358 87.5738 53.2472C87.6335 53.2634 87.686 53.2989 87.723 53.3481C87.7599 53.3972 87.7791 53.4572 87.7775 53.5185C87.7708 53.68 87.6996 53.8322 87.5795 53.9418C87.4594 54.0513 87.3002 54.1092 87.1369 54.1027C86.7525 54.0814 86.3916 53.9128 86.1306 53.6327C85.8697 53.3526 85.7293 52.983 85.7393 52.6022C85.7393 51.5769 86.7283 50.9077 87.6609 50.7012L87.8402 51.1245Z" fill="white"/>
    <path d="M220.107 51.602C220.107 52.6286 219.134 53.3041 218.198 53.5373L218.041 53.1013C218.779 52.7984 219.22 52.479 219.22 51.8568C219.22 51.3296 218.771 51.0254 218.284 50.9494C218.219 50.9367 218.162 50.8997 218.124 50.8461C218.086 50.7924 218.07 50.7264 218.081 50.6617C218.084 50.5075 218.148 50.3608 218.26 50.2531C218.372 50.1455 218.522 50.0856 218.678 50.0863C218.871 50.0911 219.061 50.1335 219.238 50.2113C219.415 50.289 219.574 50.4005 219.707 50.5393C219.84 50.6782 219.944 50.8416 220.013 51.0203C220.082 51.1989 220.114 51.3893 220.109 51.5805C220.109 51.5877 220.108 51.5949 220.107 51.602ZM222.842 51.602C222.842 52.6286 221.818 53.3041 220.886 53.5373L220.731 53.1013C221.463 52.7984 221.917 52.479 221.917 51.8568C221.917 51.3296 221.463 51.0254 220.982 50.9494C220.917 50.9367 220.86 50.8997 220.822 50.8461C220.784 50.7924 220.768 50.7264 220.779 50.6617C220.784 50.5035 220.853 50.3541 220.97 50.2462C221.087 50.1383 221.243 50.0808 221.402 50.0863C221.796 50.1002 222.168 50.2672 222.438 50.5511C222.707 50.8349 222.853 51.2126 222.842 51.602Z" fill="white"/>
  </g>
  <defs>
    <clipPath id="clip0_102_3474">
      <rect width="223" height="70" fill="white"/>
    </clipPath>
  </defs>
</svg>