
<svg xmlns="http://www.w3.org/2000/svg" width="148" height="148" viewBox="0 0 148 148" fill="none">
  <path fill-rule="evenodd" clip-rule="evenodd" d="M74 72.4583C75.2266 72.4583 76.403 72.9455 77.2704 73.8129C78.1377 74.6802 78.625 75.8566 78.625 77.0833V81.7083H83.25C84.4766 81.7083 85.653 82.1955 86.5204 83.0629C87.3877 83.9302 87.875 85.1066 87.875 86.3333C87.875 87.5599 87.3877 88.7363 86.5204 89.6036C85.653 90.471 84.4766 90.9583 83.25 90.9583H78.625V95.5833C78.625 96.8099 78.1377 97.9863 77.2704 98.8536C76.403 99.721 75.2266 100.208 74 100.208C72.7734 100.208 71.597 99.721 70.7296 98.8536C69.8623 97.9863 69.375 96.8099 69.375 95.5833V90.9583H64.75C63.5234 90.9583 62.347 90.471 61.4796 89.6036C60.6123 88.7363 60.125 87.5599 60.125 86.3333C60.125 85.1066 60.6123 83.9302 61.4796 83.0629C62.347 82.1955 63.5234 81.7083 64.75 81.7083H69.375V77.0833C69.375 75.8566 69.8623 74.6802 70.7296 73.8129C71.597 72.9455 72.7734 72.4583 74 72.4583Z" fill="#003F7C"/>
  <path fill-rule="evenodd" clip-rule="evenodd" d="M73.6793 7.70825C68.1355 7.70825 63.5167 7.70825 59.8537 8.20159C55.981 8.71959 52.4845 9.86659 49.6787 12.6724C46.8667 15.4844 45.7197 18.9809 45.2017 22.8474C44.7083 26.5166 44.7083 31.1416 44.7083 36.6793V37.1603C32.2455 37.5673 24.7592 39.0226 19.5607 44.2273C12.3333 51.4484 12.3333 63.0788 12.3333 86.3333C12.3333 109.588 12.3333 121.218 19.5607 128.439C26.7818 135.667 38.4122 135.667 61.6667 135.667H86.3333C109.588 135.667 121.218 135.667 128.439 128.439C135.667 121.218 135.667 109.588 135.667 86.3333C135.667 63.0788 135.667 51.4484 128.439 44.2273C123.241 39.0226 115.755 37.5673 103.292 37.1603V36.6793C103.292 31.1416 103.292 26.5166 102.798 22.8536C102.28 18.9809 101.133 15.4844 98.3214 12.6786C95.5155 9.86659 92.019 8.71959 88.1463 8.20159C84.4833 7.70825 79.8583 7.70825 74.3207 7.70825H73.6793ZM94.0417 37.0123V36.9999C94.0417 31.0553 94.0294 27.0593 93.6347 24.0808C93.2462 21.2379 92.5863 20.0169 91.7847 19.2153C90.983 18.4136 89.762 17.7538 86.913 17.3653C83.9407 16.9706 79.9447 16.9583 74 16.9583C68.0553 16.9583 64.0593 16.9706 61.0808 17.3714C58.238 17.7538 57.017 18.4136 56.2153 19.2214C55.4137 20.0231 54.7538 21.2379 54.3653 24.0808C53.9768 27.0593 53.9583 31.0553 53.9583 36.9999V37.0123C56.3757 36.9999 58.941 36.9999 61.6667 36.9999H86.3333C89.059 36.9999 91.6243 36.9999 94.0417 37.0123ZM98.6667 86.3333C98.6667 92.8753 96.0679 99.1493 91.442 103.775C86.8161 108.401 80.542 111 74 111C67.458 111 61.1839 108.401 56.558 103.775C51.9321 99.1493 49.3333 92.8753 49.3333 86.3333C49.3333 79.7913 51.9321 73.5172 56.558 68.8913C61.1839 64.2654 67.458 61.6666 74 61.6666C80.542 61.6666 86.8161 64.2654 91.442 68.8913C96.0679 73.5172 98.6667 79.7913 98.6667 86.3333Z" fill="#003F7C"/>
</svg>