<svg xmlns="http://www.w3.org/2000/svg" width="52" height="52" viewBox="0 0 52 52" fill="none">
  <circle cx="26" cy="26" r="26" fill="#003F7C"/>
  <path d="M13.5652 24.75C12.8749 24.75 12.3152 25.3096 12.3152 26C12.3152 26.6904 12.8749 27.25 13.5652 27.25V24.75ZM39.3187 26.8839C39.8069 26.3957 39.8069 25.6043 39.3187 25.1161L31.3637 17.1612C30.8756 16.673 30.0841 16.673 29.596 17.1612C29.1078 17.6493 29.1078 18.4408 29.596 18.9289L36.667 26L29.596 33.0711C29.1078 33.5592 29.1078 34.3507 29.596 34.8388C30.0841 35.327 30.8756 35.327 31.3637 34.8388L39.3187 26.8839ZM13.5652 27.25H38.4348V24.75H13.5652V27.25Z" fill="white"/>
</svg>