<svg xmlns="http://www.w3.org/2000/svg" width="148" height="148" viewBox="0 0 148 148" fill="none">
  <g clip-path="url(#clip0_115_416)">
    <path d="M104.833 12.3333C109.552 12.333 114.093 14.1359 117.526 17.3732C120.959 20.6104 123.026 25.0372 123.303 29.7479L123.333 30.8333C128.24 30.8333 132.945 32.7824 136.415 36.2518C139.884 39.7212 141.833 44.4267 141.833 49.3333C141.834 58.9063 138.124 68.1068 131.483 75.0018C124.842 81.8968 115.787 85.9496 106.221 86.3086L104.833 86.3333H80.1667L81.0917 86.3641C84.0281 86.5848 86.7886 87.8488 88.8742 89.9276C90.9598 92.0064 92.2328 94.7628 92.463 97.6984L92.5 98.6666V123.333C92.501 126.445 91.3259 129.442 89.2101 131.723C87.0944 134.005 84.1945 135.402 81.0917 135.636L80.1667 135.667H67.8334C64.7218 135.668 61.7249 134.492 59.4433 132.377C57.1618 130.261 55.7642 127.361 55.5309 124.258L55.5 123.333V98.6666C55.499 95.555 56.6742 92.5581 58.7899 90.2765C60.9056 87.995 63.8056 86.5975 66.9084 86.3641L67.8334 86.3333V80.1666C67.8336 78.6562 68.3881 77.1983 69.3918 76.0696C70.3954 74.9409 71.7785 74.2198 73.2785 74.0431L74 73.9999H104.833C111.375 73.9999 117.649 71.4011 122.275 66.7752C126.901 62.1493 129.5 55.8753 129.5 49.3333C129.5 47.8228 128.945 46.365 127.942 45.2363C126.938 44.1076 125.555 43.3865 124.055 43.2098L123.333 43.1666L123.303 44.2519C123.037 48.7757 121.12 53.0447 117.916 56.249C114.711 59.4534 110.443 61.3701 105.919 61.6357L104.833 61.6666H43.1667C38.4479 61.6668 33.9073 59.8639 30.4741 56.6267C27.0408 53.3894 24.9744 48.9626 24.6975 44.2519L24.6667 43.1666V30.8333C24.6664 26.1145 26.4694 21.5739 29.7066 18.1406C32.9438 14.7074 37.3707 12.6409 42.0814 12.3641L43.1667 12.3333H104.833Z" fill="#003F7C"/>
  </g>
  <defs>
    <clipPath id="clip0_115_416">
      <rect width="148" height="148" fill="white"/>
    </clipPath>
  </defs>
</svg>