<svg xmlns="http://www.w3.org/2000/svg" width="148" height="148" viewBox="0 0 148 148" fill="none">
  <path d="M14.8 74.9248C21.275 56.4865 39.8058 43.1665 61.6666 43.1665C86.0681 43.1665 106.326 59.761 110.297 81.5602C106.258 79.8582 101.016 78.446 95.7128 77.5642C85.0136 75.7882 76.8428 79.4882 69.8437 82.6825L69.7758 82.7133C62.6595 85.9632 56.758 88.658 48.9942 87.7823C42.809 87.0855 37.2405 85.1307 32.0112 82.812C29.6432 81.7637 27.3923 80.666 25.1662 79.5745L24.42 79.2107C22.035 78.0185 19.6101 76.9078 17.1495 75.8807L14.8 74.9248Z" fill="#003F7C"/>
  <path d="M12.6601 84.0393C12.4422 85.8131 12.3331 87.5986 12.3333 89.3857C12.3333 101.195 17.057 111.968 24.8393 120.139C27.6143 123.056 29.0018 124.511 34.817 127.009C40.6383 129.5 44.6466 129.5 52.6756 129.5H70.6576C78.6867 129.5 82.695 129.5 88.5163 127.009C94.3315 124.511 95.719 123.056 98.5001 120.139C105.641 112.634 110.204 102.934 110.907 92.2656L108.755 91.0692C105.851 89.4536 100.406 87.7207 94.1958 86.6909C86.5553 85.4206 80.7278 87.8811 73.6855 91.1001L73.0071 91.4084C66.2608 94.4918 58.2935 98.1362 47.9581 96.9769C40.4656 96.1321 33.929 93.7764 28.2618 91.2666C25.7335 90.1442 23.3285 88.9726 21.1085 87.8873L20.3685 87.5234C18.1755 86.4248 15.946 85.4005 13.6838 84.4524L12.6601 84.0393ZM77.4533 15.0466C79.6363 17.2234 80.0618 20.4733 80.1481 26.2083H88.3066C93.8104 26.2086 99.2384 27.4902 104.161 29.9514L109.316 32.5291C113.516 29.1436 120.416 28.9093 126.417 32.3749C133.792 36.6299 137.011 44.8624 133.601 50.7639C130.197 56.6593 121.452 57.9912 114.083 53.7362C108.879 50.7269 105.74 45.7381 105.549 40.9897L100.023 38.2271C96.3855 36.4074 92.3741 35.4595 88.3066 35.4583H80.1666V39.9846C74.2009 38.0001 67.9538 36.9923 61.6666 36.9999C55.1917 36.9999 48.9633 38.0483 43.1666 39.9846V35.4583H43.8265C44.4246 35.4644 45.1215 35.4706 45.7135 35.4583C46.5706 35.4274 47.73 35.3472 48.8955 34.9896C50.1411 34.6011 51.5903 33.8302 52.6448 32.3071C53.6685 30.8394 53.9583 29.1929 53.9583 27.7499C53.9583 26.3069 53.6685 24.6604 52.6448 23.1866C51.7313 21.8958 50.4075 20.9525 48.8893 20.5103C47.854 20.215 46.7839 20.0594 45.7073 20.0478C45.0825 20.0344 44.4575 20.0323 43.8326 20.0416H43.5983C43.9621 17.8586 44.6343 16.2799 45.8676 15.0466C48.5933 12.3333 52.947 12.3333 61.6666 12.3333C70.3863 12.3333 74.7462 12.3333 77.4533 15.0466Z" fill="#003F7C"/>
</svg>