<svg xmlns="http://www.w3.org/2000/svg" width="52" height="52" viewBox="0 0 52 52" fill="none">
  <circle cx="26" cy="26" r="25" transform="matrix(-1 0 0 1 52 0)" fill="white" stroke="#003F7C" stroke-width="2"/>
  <path d="M38.4348 24.75C39.1251 24.75 39.6848 25.3096 39.6848 26C39.6848 26.6904 39.1251 27.25 38.4348 27.25V24.75ZM12.6813 26.8839C12.1932 26.3957 12.1932 25.6043 12.6813 25.1161L20.6363 17.1612C21.1244 16.673 21.9159 16.673 22.4041 17.1612C22.8922 17.6493 22.8922 18.4408 22.4041 18.9289L15.333 26L22.4041 33.0711C22.8922 33.5592 22.8922 34.3507 22.4041 34.8388C21.9159 35.327 21.1244 35.327 20.6363 34.8388L12.6813 26.8839ZM38.4348 27.25H13.5652V24.75H38.4348V27.25Z" fill="#003F7C"/>
</svg>