<svg xmlns="http://www.w3.org/2000/svg" width="26" height="27" viewBox="0 0 26 27" fill="none">
  <path d="M11.5273 1.92697C7.89648 2.1301 4.53984 4.10041 2.48828 7.22854C1.83828 8.22385 1.17812 9.8133 0.919139 11.027C0.198045 14.3633 0.980076 17.8469 3.06719 20.584C3.48359 21.1324 4.39258 22.0617 4.95117 22.5137C7.8457 24.8395 11.6035 25.652 15.1887 24.7278C19.2867 23.6715 22.5215 20.3758 23.532 16.2371C23.7555 15.3078 23.8367 14.6172 23.8418 13.5762C23.8418 12.6824 23.7453 11.4688 23.6691 11.4688C23.6539 11.4688 23.207 11.8953 22.684 12.4235L21.7344 13.3731V13.7793C21.7293 15.5871 20.9879 17.6844 19.8047 19.2383C17.5957 22.1379 13.909 23.5242 10.3543 22.7879C6.44414 21.9805 3.44297 18.8016 2.86914 14.8559C2.76758 14.1399 2.76758 12.8602 2.86914 12.1442C3.32617 9.02111 5.29648 6.33986 8.14531 4.96369C9.26758 4.42541 10.268 4.15627 11.5629 4.04455C13.5332 3.87697 15.6914 4.42033 17.3469 5.50197C17.5805 5.65432 17.7937 5.78127 17.8141 5.78127C17.8902 5.78127 19.307 4.31877 19.2766 4.26799C19.2613 4.23752 18.9871 4.04455 18.6672 3.83127C16.575 2.43479 14.107 1.77971 11.5273 1.92697Z" fill="#003F7C"/>
  <path d="M22.9328 4.08013C22.7703 4.13599 21.7598 5.12114 18.0426 8.83833L13.3555 13.5254L11.4918 11.6668C10.4609 10.6411 9.56718 9.77778 9.50117 9.74224C9.34374 9.66099 8.93749 9.66099 8.78007 9.74224C8.61249 9.82856 7.22109 11.2098 7.12968 11.3774C7.03828 11.5551 7.03828 11.9918 7.12968 12.1696C7.17031 12.2458 8.3789 13.4747 9.81093 14.9016C12.7461 17.8215 12.6344 17.7352 13.3555 17.7352C13.6246 17.7301 13.8227 17.6997 14.041 17.6133C14.3355 17.5067 14.559 17.2883 19.7437 12.1086C22.8059 9.05161 25.1875 6.6395 25.2434 6.53286C25.3652 6.29419 25.3652 5.97935 25.2434 5.74067C25.1875 5.63911 24.8168 5.22778 24.4156 4.83677C23.8469 4.26802 23.6437 4.10552 23.4863 4.05981C23.2324 3.98872 23.1766 3.9938 22.9328 4.08013Z" fill="#003F7C"/>
</svg>