<svg xmlns="http://www.w3.org/2000/svg" width="47" height="47" viewBox="0 0 47 47" fill="none">
  <g clip-path="url(#clip0_371_2564)">
    <path d="M21.7615 0.442596C20.9672 0.514862 20.5158 0.740692 20.2902 1.19235C20.1999 1.35495 20.0194 2.19504 19.875 3.05319C19.7396 3.91135 19.6042 4.62497 19.5771 4.65207C19.559 4.67014 19.1438 4.7966 18.6564 4.92307C17.0406 5.34763 15.0999 6.16965 13.6376 7.06393L13.1411 7.37106L11.76 6.37741C10.4963 5.47409 10.3248 5.38376 9.90056 5.34763C9.49436 5.32053 9.38604 5.34763 8.98887 5.61862C8.38409 6.01608 6.31699 8.08469 5.97398 8.63571C5.76637 8.96091 5.69416 9.1777 5.69416 9.48483C5.69416 9.96359 5.8115 10.1804 6.96691 11.7522L7.70709 12.7729L7.49948 13.1433C6.40726 15.0583 5.72124 16.6662 5.26088 18.3554L5.01716 19.2859L3.36529 19.5659C1.65024 19.855 1.4336 19.9363 1.06351 20.4331C0.61218 21.0383 0.621207 25.2207 1.07254 25.8259C1.4336 26.3137 1.66829 26.404 3.36529 26.6841L5.01716 26.9641L5.26088 27.8945C5.71221 29.5566 6.50655 31.4175 7.4724 33.0615L7.70709 33.468L6.86762 34.6333C5.73929 36.2141 5.69416 36.2954 5.69416 36.7741C5.69416 37.0722 5.76637 37.2981 5.96496 37.6052C6.30797 38.1472 8.39311 40.2429 8.98887 40.6313C9.38604 40.9023 9.49436 40.9294 9.90056 40.9023C10.3248 40.8662 10.4963 40.7759 11.76 39.8725L13.1411 38.8789L13.6376 39.186C15.0999 40.0803 17.0406 40.9023 18.6564 41.3269C19.1438 41.4533 19.559 41.5798 19.5771 41.5979C19.6042 41.625 19.7396 42.3386 19.875 43.1968C20.0194 44.0549 20.1999 44.895 20.2902 45.0576C20.5339 45.5273 20.922 45.708 21.9059 45.8073C22.9169 45.8977 23.2148 45.8073 23.3773 45.3376C23.5037 44.9763 23.5127 38.8698 23.3863 38.5356C23.2509 38.1743 22.953 38.0478 21.9962 37.9394C20.0645 37.7317 18.3404 37.2258 16.7156 36.3947C12.6266 34.299 9.83737 30.6316 8.83542 26.0156C8.66391 25.1936 8.63683 24.8051 8.63683 23.125C8.63683 21.4448 8.66391 21.0564 8.83542 20.2343C9.28675 18.1748 10.1804 16.1062 11.3177 14.4802C11.6246 14.0466 12.3648 13.1975 12.9606 12.6013C15.5061 10.0449 18.6293 8.59055 22.2851 8.25632C22.7906 8.21115 23.0072 8.14792 23.1877 7.99435L23.4314 7.78659L23.4585 4.54367C23.4766 2.38474 23.4585 1.20139 23.3863 0.975555C23.287 0.62326 22.9259 0.352264 22.601 0.379364C22.5107 0.379364 22.1316 0.415497 21.7615 0.442596Z" fill="white"/>
    <path d="M29.4523 2.22217C28.315 2.79126 27.8456 4.12817 28.3872 5.28442C28.5948 5.73608 29.0913 6.25098 29.4884 6.43164L29.7051 6.53101V9.05127C29.7051 10.6863 29.669 11.6348 29.6058 11.7612C29.4072 12.1316 29.019 12.1948 26.952 12.1948H25.0112V12.9717V13.7485L27.295 13.7124C29.8766 13.6853 29.9759 13.6582 30.6438 12.9175C31.2306 12.2671 31.2396 12.2219 31.2396 9.24097L31.2486 6.54907L31.718 6.27808C32.6026 5.76318 33.0269 4.6792 32.729 3.65845C32.3318 2.26733 30.7431 1.57178 29.4523 2.22217Z" fill="white"/>
    <path d="M37.3325 9.25C36.7909 9.50293 36.457 9.84619 36.2132 10.3882C35.9695 10.9211 35.9605 11.8245 36.1952 12.3303C36.3667 12.7188 37.0527 13.4053 37.3687 13.5046C37.5582 13.5588 37.5582 13.595 37.5582 15.7268V17.9038L37.2964 18.1658L37.0347 18.4277H31.0229H25.0112V19.1956V19.9724L31.2667 19.9453C38.2713 19.9182 37.7478 19.9634 38.4609 19.2317C39.0386 18.6355 39.0927 18.3464 39.0927 15.7991V13.5679L39.3635 13.4595C39.7517 13.2969 40.2662 12.7639 40.4738 12.2942C40.8529 11.4451 40.6182 10.2979 39.9322 9.64746C39.2733 9.02417 38.172 8.85254 37.3325 9.25Z" fill="white"/>
    <path d="M22.0776 11.445C17.6185 12.0051 13.8544 15.0041 12.3831 19.1775C11.4804 21.7339 11.4804 24.5161 12.3831 27.0725C13.8905 31.3362 17.7539 34.3623 22.3123 34.823C22.8629 34.8772 22.9261 34.8681 23.1698 34.6604L23.4316 34.4345V23.125V11.8154L23.1789 11.5986C22.9261 11.3818 22.7456 11.3547 22.0776 11.445Z" fill="white"/>
    <path d="M25.0112 16.0791V16.9011L29.0642 16.874L33.1171 16.8469L33.3518 16.6301C33.5865 16.4133 33.6587 16.0159 33.5323 15.6726C33.3789 15.2842 33.1713 15.2661 28.9829 15.2661H25.0112V16.0791Z" fill="white"/>
    <path d="M43.9671 20.8577C43.3352 21.0654 42.6221 21.6707 42.4777 22.1223L42.4236 22.312H33.7129H25.0112V23.125V23.938H33.7129H42.4236L42.4777 24.1277C42.577 24.4258 43.1457 25.0129 43.5519 25.2297C43.8407 25.3833 44.0754 25.4285 44.599 25.4285C45.3662 25.4285 45.7995 25.2478 46.2779 24.7329C46.7653 24.218 46.9007 23.8748 46.9007 23.125C46.9007 22.6372 46.8466 22.3572 46.7292 22.1313C46.4945 21.6887 46.0613 21.2461 45.637 21.0293C45.2489 20.8306 44.3372 20.7312 43.9671 20.8577Z" fill="white"/>
    <path d="M25.0112 27.0544V27.8223H31.0229H37.0347L37.2964 28.0842L37.5582 28.3462V30.5232C37.5582 32.655 37.5582 32.6912 37.3687 32.7454C37.0527 32.8447 36.3667 33.5312 36.1952 33.9197C36.0869 34.1545 36.0237 34.4978 36.0237 34.8682C36.0237 36.2322 36.9805 37.2168 38.3255 37.2168C39.6434 37.2168 40.6453 36.2141 40.6543 34.9133C40.6543 34.001 40.0947 33.0977 39.3635 32.7905L39.0927 32.6821V30.4509C39.0927 27.9036 39.0386 27.6145 38.4609 27.0183C37.7478 26.2866 38.2713 26.3318 31.2667 26.3047L25.0112 26.2776V27.0544Z" fill="white"/>
    <path d="M25.0112 30.1709V30.9839H28.9829C33.1713 30.9839 33.3789 30.9658 33.5323 30.5774C33.6587 30.2341 33.5865 29.8367 33.3518 29.6199L33.1171 29.4031L29.0642 29.376L25.0112 29.3489V30.1709Z" fill="white"/>
    <path d="M25.0112 33.3235V34.1455H27.1325H29.2628L29.4794 34.3713L29.7051 34.5881V37.1536V39.719L29.4884 39.8184C29.0913 39.999 28.5948 40.5139 28.3872 40.9656C27.656 42.5283 28.7753 44.2627 30.5084 44.2627C31.2306 44.2627 31.718 44.0459 32.2235 43.4949C33.2074 42.429 32.9546 40.6855 31.718 39.9719L31.2486 39.7009L31.2396 37.009C31.2396 34.0281 31.2306 33.9829 30.6438 33.3325C29.9759 32.5918 29.8766 32.5647 27.295 32.5376L25.0112 32.5015V33.3235Z" fill="white"/>
  </g>
  <defs>
    <clipPath id="clip0_371_2564">
      <rect width="46.2162" height="46.25" fill="white" transform="translate(0.729492)"/>
    </clipPath>
  </defs>
</svg>